<svg width="36" height="37" viewBox="0 0 36 37" fill="none" xmlns="http://www.w3.org/2000/svg">
<g clip-path="url(#clip0_26_1276)">
<path d="M17.9784 4.09018C22.6873 4.09018 23.2449 4.11084 25.0968 4.19345C26.8179 4.26918 27.7473 4.55832 28.3669 4.79927C29.1861 5.11595 29.7781 5.50147 30.3908 6.11418C31.0104 6.73377 31.3891 7.31894 31.7058 8.13817C31.9467 8.75776 32.2359 9.69403 32.3116 11.4082C32.3942 13.267 32.4148 13.8246 32.4148 18.5266C32.4148 23.2355 32.3942 23.7932 32.3116 25.645C32.2359 27.3661 31.9467 28.2955 31.7058 28.9151C31.3891 29.7343 31.0036 30.3264 30.3908 30.9391C29.7713 31.5587 29.1861 31.9373 28.3669 32.254C27.7473 32.495 26.811 32.7841 25.0968 32.8598C23.238 32.9424 22.6804 32.9631 17.9784 32.9631C13.2695 32.9631 12.7119 32.9424 10.86 32.8598C9.1389 32.7841 8.20952 32.495 7.58993 32.254C6.77069 31.9373 6.17864 31.5518 5.56593 30.9391C4.94634 30.3195 4.56771 29.7343 4.25103 28.9151C4.01007 28.2955 3.72093 27.3592 3.6452 25.645C3.56259 23.7863 3.54194 23.2286 3.54194 18.5266C3.54194 13.8177 3.56259 13.2601 3.6452 11.4082C3.72093 9.68715 4.01007 8.75776 4.25103 8.13817C4.56771 7.31894 4.95323 6.72688 5.56593 6.11418C6.18552 5.49459 6.77069 5.11595 7.58993 4.79927C8.20952 4.55832 9.14579 4.26918 10.86 4.19345C12.7119 4.11084 13.2695 4.09018 17.9784 4.09018ZM17.9784 0.916504C13.1938 0.916504 12.5948 0.937157 10.7154 1.01977C8.84288 1.10238 7.55551 1.40529 6.44025 1.839C5.27679 2.29337 4.29233 2.89231 3.31476 3.87677C2.3303 4.85434 1.73136 5.8388 1.27699 6.99537C0.84328 8.11752 0.540369 9.39801 0.457757 11.2705C0.375145 13.1569 0.354492 13.7558 0.354492 18.5404C0.354492 23.325 0.375145 23.924 0.457757 25.8034C0.540369 27.6759 0.84328 28.9633 1.27699 30.0786C1.73136 31.242 2.3303 32.2265 3.31476 33.204C4.29233 34.1816 5.27679 34.7874 6.43336 35.2349C7.55551 35.6686 8.83599 35.9715 10.7085 36.0542C12.588 36.1368 13.1869 36.1574 17.9715 36.1574C22.7561 36.1574 23.3551 36.1368 25.2345 36.0542C27.107 35.9715 28.3944 35.6686 29.5097 35.2349C30.6662 34.7874 31.6507 34.1816 32.6283 33.204C33.6058 32.2265 34.2117 31.242 34.6591 30.0854C35.0928 28.9633 35.3958 27.6828 35.4784 25.8103C35.561 23.9308 35.5816 23.3319 35.5816 18.5473C35.5816 13.7627 35.561 13.1637 35.4784 11.2843C35.3958 9.41177 35.0928 8.1244 34.6591 7.00914C34.2254 5.8388 33.6265 4.85434 32.642 3.87677C31.6645 2.89919 30.68 2.29337 29.5234 1.84589C28.4013 1.41218 27.1208 1.10927 25.2482 1.02665C23.3619 0.937157 22.763 0.916504 17.9784 0.916504Z" fill="white"/>
<path d="M17.9784 9.48755C12.9804 9.48755 8.92548 13.5424 8.92548 18.5405C8.92548 23.5385 12.9804 27.5934 17.9784 27.5934C22.9764 27.5934 27.0313 23.5385 27.0313 18.5405C27.0313 13.5424 22.9764 9.48755 17.9784 9.48755ZM17.9784 24.4128C14.7359 24.4128 12.106 21.783 12.106 18.5405C12.106 15.2979 14.7359 12.6681 17.9784 12.6681C21.2209 12.6681 23.8507 15.2979 23.8507 18.5405C23.8507 21.783 21.2209 24.4128 17.9784 24.4128Z" fill="white"/>
<path d="M29.5027 9.12948C29.5027 10.2998 28.5527 11.243 27.3892 11.243C26.2189 11.243 25.2758 10.2929 25.2758 9.12948C25.2758 7.95915 26.2258 7.01599 27.3892 7.01599C28.5527 7.01599 29.5027 7.96603 29.5027 9.12948Z" fill="white"/>
</g>
<defs>
<clipPath id="clip0_26_1276">
<rect width="35.2478" height="35.2478" fill="white" transform="translate(0.354492 0.916504)"/>
</clipPath>
</defs>
</svg>
