<svg width="37" height="37" viewBox="0 0 37 37" fill="none" xmlns="http://www.w3.org/2000/svg">
<path d="M36.0258 26.5557C35.7828 25.8897 35.3148 25.5296 34.7837 25.2416C34.6847 25.1876 34.5947 25.1336 34.5137 25.0976C34.3517 25.0166 34.1897 24.9356 34.0276 24.8546C32.3715 23.9725 31.0754 22.8744 30.1843 21.5603C29.9323 21.1912 29.7073 20.7952 29.5272 20.3902C29.4462 20.1742 29.4552 20.0481 29.5092 19.9311C29.5632 19.8411 29.6353 19.7691 29.7253 19.7061C30.0133 19.5171 30.3013 19.3281 30.4993 19.2021C30.8504 18.968 31.1384 18.788 31.3184 18.662C31.9935 18.185 32.4705 17.6809 32.7675 17.1139C33.1906 16.3218 33.2446 15.3947 32.9205 14.5577C32.4705 13.3695 31.3544 12.6405 29.9953 12.6405C29.7073 12.6405 29.4282 12.6675 29.1402 12.7305C29.0682 12.7485 28.9872 12.7665 28.9152 12.7845C28.9242 11.9744 28.9062 11.1193 28.8342 10.2733C28.5822 7.31201 27.5381 5.76387 26.458 4.53076C25.7649 3.75669 24.9548 3.09963 24.0458 2.58659C22.4076 1.6505 20.5444 1.17346 18.5193 1.17346C16.4941 1.17346 14.6399 1.6505 13.0018 2.58659C12.0927 3.09963 11.2826 3.75669 10.5896 4.53076C9.50946 5.76387 8.47437 7.32101 8.21335 10.2733C8.14134 11.1193 8.12334 11.9744 8.13234 12.7845C8.06033 12.7665 7.98833 12.7485 7.90732 12.7305C7.62829 12.6675 7.34027 12.6405 7.06124 12.6405C5.70212 12.6405 4.58602 13.3785 4.13598 14.5577C3.81195 15.3947 3.86596 16.3218 4.289 17.1139C4.58602 17.6809 5.06307 18.185 5.73813 18.662C5.91814 18.788 6.19717 18.968 6.5572 19.2021C6.74622 19.3281 7.02524 19.5081 7.30426 19.6881C7.40327 19.7511 7.48428 19.8321 7.54729 19.9311C7.60129 20.0481 7.61029 20.1742 7.52028 20.4082C7.34027 20.8042 7.12425 21.1912 6.87223 21.5513C5.99915 22.8294 4.73904 23.9185 3.13689 24.7916C2.29082 25.2416 1.40874 25.5386 1.03071 26.5557C0.751682 27.3208 0.931698 28.1849 1.64276 28.9229C1.90378 29.193 2.20981 29.427 2.54284 29.607C3.2359 29.985 3.97397 30.2821 4.74804 30.4891C4.91005 30.5341 5.05406 30.5971 5.18908 30.6871C5.4501 30.9121 5.4141 31.2541 5.75613 31.7582C5.92714 32.0192 6.15216 32.2442 6.40418 32.4242C7.13325 32.9283 7.95232 32.9553 8.8164 32.9913C9.59947 33.0183 10.4815 33.0543 11.4986 33.3873C11.9217 33.5223 12.3537 33.7924 12.8578 34.1074C14.0729 34.8545 15.729 35.8716 18.5103 35.8716C21.2915 35.8716 22.9567 34.8455 24.1808 34.0984C24.6848 33.7924 25.1168 33.5223 25.5219 33.3873C26.53 33.0543 27.4211 33.0183 28.2041 32.9913C29.0682 32.9553 29.8873 32.9283 30.6163 32.4242C30.9224 32.2082 31.1744 31.9382 31.3544 31.6142C31.6064 31.1911 31.5974 30.8941 31.8315 30.6871C31.9575 30.5971 32.1015 30.5341 32.2455 30.4981C33.0196 30.2911 33.7756 29.994 34.4777 29.607C34.8287 29.418 35.1527 29.166 35.4228 28.8689L35.4318 28.8599C36.1338 28.1399 36.3048 27.2938 36.0258 26.5557ZM33.5596 27.8788C32.0565 28.7069 31.0484 28.6169 30.2743 29.121C29.6083 29.544 30.0043 30.4621 29.5272 30.7951C28.9332 31.2001 27.187 30.7681 24.9368 31.5152C23.0737 32.1272 21.8946 33.9004 18.5463 33.9004C15.198 33.9004 14.0459 32.1362 12.1557 31.5152C9.9055 30.7681 8.15934 31.2091 7.56529 30.7951C7.08825 30.4621 7.47528 29.544 6.81822 29.121C6.03515 28.6169 5.03606 28.7069 3.53293 27.8788C2.56984 27.3478 3.11889 27.0238 3.43392 26.8708C8.88841 24.2335 9.76148 20.1562 9.79749 19.8501C9.84249 19.4811 9.8965 19.1931 9.49146 18.824C9.10443 18.464 7.37627 17.3929 6.89023 17.0599C6.09816 16.5018 5.74713 15.9528 6.00815 15.2687C6.18817 14.8007 6.62921 14.6207 7.08825 14.6207C7.23226 14.6207 7.37627 14.6387 7.52028 14.6657C8.39336 14.8547 9.23944 15.2867 9.72548 15.4127C9.78849 15.4307 9.84249 15.4397 9.9055 15.4397C10.1665 15.4397 10.2565 15.3047 10.2385 15.0077C10.1845 14.0536 10.0495 12.1994 10.2025 10.4623C10.4095 8.07708 11.1746 6.88897 12.0927 5.84488C12.5337 5.34083 14.5949 3.16264 18.5463 3.16264C22.4976 3.16264 24.5588 5.33183 24.9998 5.83588C25.9179 6.87997 26.683 8.06808 26.89 10.4533C27.043 12.1904 26.908 14.0446 26.845 14.9987C26.827 15.3137 26.917 15.4307 27.178 15.4307C27.241 15.4307 27.295 15.4217 27.3581 15.4037C27.8441 15.2867 28.6902 14.8457 29.5632 14.6567C29.7073 14.6207 29.8513 14.6117 29.9953 14.6117C30.4543 14.6117 30.8954 14.7917 31.0754 15.2597C31.3364 15.9438 30.9854 16.4928 30.1933 17.0509C29.7163 17.3839 27.9881 18.455 27.5921 18.815C27.187 19.1841 27.241 19.4721 27.286 19.8411C27.322 20.1472 28.1951 24.2245 33.6496 26.8618C33.9736 27.0148 34.5137 27.3478 33.5596 27.8788Z" fill="white"/>
</svg>
