<svg width="37" height="37" viewBox="0 0 37 37" fill="none" xmlns="http://www.w3.org/2000/svg">
<g clip-path="url(#clip0_26_1285)">
<path d="M25.8769 0.916504H19.9366V24.9258C19.9366 27.7866 17.6519 30.1364 14.8087 30.1364C11.9655 30.1364 9.68081 27.7866 9.68081 24.9258C9.68081 22.1163 11.9148 19.8174 14.6564 19.7153V13.6875C8.6146 13.7896 3.74054 18.7447 3.74054 24.9258C3.74054 31.1581 8.71614 36.1643 14.8595 36.1643C21.0028 36.1643 25.9784 31.107 25.9784 24.9258V12.6147C28.2124 14.2494 30.954 15.22 33.848 15.2711V9.24316C29.3802 9.08991 25.8769 5.41187 25.8769 0.916504Z" fill="white"/>
</g>
<defs>
<clipPath id="clip0_26_1285">
<rect width="35.2478" height="35.2478" fill="white" transform="translate(0.803223 0.916504)"/>
</clipPath>
</defs>
</svg>
