<svg width="103" height="28" viewBox="0 0 103 28" fill="none" xmlns="http://www.w3.org/2000/svg">
<path fill-rule="evenodd" clip-rule="evenodd" d="M25.7294 22.4936C25.4902 22.9203 25.3699 23.4002 25.3699 23.9332C25.3699 24.739 25.6385 25.412 26.1743 25.9506C26.7115 26.4892 27.3872 26.7592 28.2057 26.7592C29.1038 26.7592 29.8565 26.3969 30.4609 25.6722L30.9673 26.0681C30.6469 26.4878 30.2482 26.811 29.7698 27.0404C29.2913 27.2699 28.7569 27.3846 28.1665 27.3846C27.0445 27.3846 26.1589 26.9998 25.5098 26.2304C24.9656 25.5799 24.6942 24.795 24.6942 23.8759C24.6942 22.9077 25.0229 22.0949 25.6819 21.4332C26.3408 20.7729 27.1662 20.4427 28.1581 20.4427C28.7569 20.4427 29.2983 20.5644 29.7809 20.8092C30.2636 21.0541 30.6595 21.3954 30.9673 21.8361L30.4609 22.2362C30.1811 21.8613 29.8467 21.5773 29.455 21.3842C29.0633 21.1912 28.6338 21.0946 28.1665 21.0946C27.6545 21.0946 27.1802 21.2205 26.7437 21.4738C26.3072 21.727 25.9686 22.0669 25.7294 22.4936ZM42.6952 21.4444C43.3499 22.1117 43.6773 22.9343 43.6773 23.9108C43.6773 24.8873 43.3499 25.6988 42.6966 26.3731C42.0433 27.0474 41.2472 27.3846 40.3071 27.3846C39.367 27.3846 38.5527 27.0488 37.898 26.3787C37.2433 25.7072 36.9159 24.8957 36.9159 23.943C36.9159 23.3079 37.0656 22.7189 37.3636 22.1775C37.6616 21.6346 38.0687 21.2108 38.5835 20.9044C39.0983 20.598 39.6566 20.4441 40.2553 20.4441C41.2276 20.4441 42.0405 20.7771 42.6952 21.4444ZM43.0142 23.9094C43.0142 23.3848 42.8953 22.9105 42.6574 22.4866C42.4196 22.0627 42.0852 21.7228 41.6543 21.4682C41.2234 21.2135 40.766 21.0862 40.2819 21.0862C39.7978 21.0862 39.3572 21.2135 38.9319 21.4682C38.5066 21.7228 38.175 22.0655 37.9358 22.4978C37.6965 22.9301 37.5776 23.41 37.5776 23.9416C37.5776 24.7265 37.842 25.391 38.3709 25.931C38.8997 26.4724 39.5362 26.7424 40.2833 26.7424C40.7813 26.7424 41.2416 26.6179 41.6655 26.3689C42.0894 26.1199 42.4196 25.7799 42.6574 25.3476C42.8953 24.9153 43.0142 24.4383 43.0142 23.9094ZM54.3266 25.675L50.0554 20.6092H49.9155V27.2181H50.5786V22.2138L54.8148 27.2181H54.9589V20.6092H54.3266V25.675ZM61.2181 20.6092V21.2471H63.6342L60.9299 27.2181H64.468V26.5717H61.9218L64.6023 20.6092H61.2181ZM70.7061 27.2181H74.3576V26.5717H71.3469V23.9752H74.3576V23.3288H71.3469V21.2569H74.3827V20.6106H70.7047L70.7061 27.2181ZM84.0933 21.2807C84.3255 21.5703 84.4416 21.9326 84.4416 22.3705C84.4416 22.8084 84.3283 23.1736 84.1017 23.4604C83.875 23.7458 83.5616 23.9388 83.1643 24.0381C82.8733 24.1095 82.3291 24.1459 81.5331 24.1459H81.0756V27.2195H80.4348V20.6106H81.7135C82.4466 20.6106 82.9405 20.6441 83.1965 20.7099C83.563 20.8022 83.861 20.9925 84.0933 21.2807ZM83.7799 22.3719C83.7799 22.1509 83.7211 21.948 83.605 21.7648C83.4889 21.5815 83.335 21.45 83.1447 21.373C82.9545 21.2947 82.6425 21.2569 82.2088 21.2569H81.0742V23.4995L82.1598 23.5135C82.5991 23.5135 82.9209 23.4729 83.1237 23.3904C83.328 23.3079 83.4875 23.175 83.6036 22.9917C83.7197 22.8084 83.7785 22.6028 83.7785 22.3747L83.7799 22.3719ZM90.0348 21.2555H91.466V27.2181H92.1208V21.2555H93.552V20.6092H90.0362L90.0348 21.2555ZM20.6524 3.14395C20.6524 3.14395 20.5853 3.14395 20.5853 3.0768C19.9109 2.87394 19.3723 2.87394 18.9009 3.21111C18.4965 3.41396 18.2951 3.74972 18.2265 4.22259C18.1594 4.35689 18.1594 4.4912 18.1594 4.69405C18.0922 4.89551 18.0922 5.03122 18.1594 5.23267L17.0807 5.90699L13.7133 0.583768L8.66151 3.88543L9.33444 4.89551H9.8073C10.4802 4.89551 11.0188 5.16552 11.2889 5.63699C11.626 6.10845 11.626 6.71562 11.4232 7.32139C11.1531 7.92716 10.6803 8.46718 10.0759 8.93865C9.40299 9.27441 8.72867 9.47726 8.05434 9.41011C7.44857 9.41011 7.04426 9.20726 6.7071 8.87149C6.7071 8.80434 6.63855 8.73579 6.57139 8.66864C6.30139 8.26432 6.23423 7.79286 6.43569 7.25424C6.43569 7.18849 6.43569 7.11994 6.50424 6.98563C6.57139 6.85133 6.63855 6.71562 6.7071 6.58132L6.03278 5.57123L0.980957 8.80294L9.40159 21.8725L14.4534 18.6394L13.7805 17.6293H13.309C12.6347 17.6293 12.0961 17.3579 11.8261 16.8878C11.4889 16.4163 11.4889 15.8777 11.7589 15.2034C11.9618 14.5976 12.4318 14.0576 13.1062 13.5862C13.1733 13.519 13.309 13.4518 13.4433 13.3833C13.8476 13.1804 14.2506 13.0461 14.6549 13.0461H15.0592C15.7335 13.0461 16.205 13.3161 16.5407 13.7876C16.8107 14.2605 16.8107 14.7991 16.6093 15.472C16.5407 15.6077 16.4736 15.8092 16.4064 15.9449L17.0136 16.955L22.0668 13.7205L18.7652 8.46578L19.7766 7.79146C19.9781 7.92576 20.1124 7.92576 20.2481 7.99292C20.9224 8.26292 21.4596 8.26292 21.9325 7.92576C22.404 7.59 22.674 7.11714 22.674 6.44421C22.7411 5.77129 22.5383 5.09697 22.0682 4.42265C21.7311 3.81688 21.2568 3.41396 20.6524 3.14395ZM83.3742 9.0044V8.60009H72.7977V11.4974H79.5339C79.1296 12.3061 78.5238 12.9804 77.7152 13.519C76.8394 14.0576 76.0308 14.3276 75.0892 14.3948H74.8192C74.0777 14.3948 73.3363 14.1933 72.6634 13.9233C71.9219 13.5862 71.249 13.1147 70.7089 12.5761C70.3032 12.1718 69.9675 11.7003 69.6975 11.1617C69.4288 10.6231 69.2931 10.0159 69.226 9.41011C69.1588 9.34156 69.1588 9.27581 69.1588 9.1401V8.46718C69.1588 8.33288 69.1588 8.26572 69.226 8.13142C69.2931 7.4571 69.496 6.91848 69.8318 6.31131C70.1004 5.70554 70.5732 5.23407 71.0447 4.76121C71.5162 4.28974 72.1219 3.95398 72.7291 3.68397C73.402 3.48251 74.0764 3.34681 74.7507 3.34681H75.0193C75.7608 3.34681 76.5022 3.61542 77.1752 3.95258C77.9166 4.35689 78.5224 4.89551 78.9939 5.50128H82.5641C81.8898 3.95258 80.8797 2.80679 79.5325 1.86386C78.0509 0.988081 76.5008 0.516615 74.9521 0.449463H74.7507C72.4605 0.449463 70.4389 1.25809 68.7545 2.87394C67.003 4.4912 66.1943 6.57992 66.1943 8.93725C66.1943 11.2946 67.003 13.3161 68.7545 14.8662C70.4389 16.4835 72.4605 17.2921 74.8178 17.2921C77.108 17.225 79.0624 16.4835 80.814 14.8662C82.4984 13.3161 83.3742 11.3617 83.3742 9.0044ZM35.2707 9.61157C35.7421 10.2859 36.0121 11.0945 36.0121 11.9689C36.0121 12.7775 35.8107 13.4518 35.4735 14.1248C35.1364 14.7991 34.6649 15.3377 34.0577 15.8092C33.5191 16.2135 32.9805 16.4821 32.3733 16.6178C31.7675 16.7521 31.1604 16.8193 30.4874 16.8878H25.5028V0.718073H29.073C29.7474 0.718073 30.3531 0.785225 30.9603 0.852377C31.5661 0.852377 32.1719 1.05383 32.779 1.32384C33.3848 1.661 33.9234 2.19962 34.3949 2.87394C34.7992 3.54687 35.0006 4.22119 35.0678 4.96127C35.0006 5.63559 34.8663 6.24136 34.5963 6.78137C34.3277 7.38715 33.8563 7.79146 33.2491 8.06147C34.1249 8.33148 34.8006 8.8701 35.2707 9.61157ZM28.4673 6.91708H29.073L29.1402 6.98423H29.6117C29.6788 6.98423 29.8131 6.98423 30.0146 6.91708H30.6217C30.7575 6.84993 30.9589 6.78277 31.0932 6.71422C31.4304 6.57992 31.6318 6.37846 31.7661 6.10845C31.969 5.83844 32.0361 5.56983 32.0361 5.23267C32.0361 4.89551 31.9004 4.6269 31.7661 4.35689C31.5647 4.08688 31.3618 3.88543 31.0247 3.81828C30.8904 3.75112 30.7561 3.75112 30.6217 3.68257C30.486 3.68257 30.3517 3.68257 30.1503 3.61542H29.476C29.4088 3.68257 29.3417 3.68257 29.2745 3.68257H28.4659L28.4673 6.91708ZM33.049 11.8346C32.9819 11.4303 32.9147 11.0945 32.7119 10.8917C32.5776 10.6217 32.3076 10.3516 31.9704 10.2173C31.6332 10.0145 31.2975 9.94733 30.9603 9.94733C30.6231 9.88018 30.286 9.88018 29.9488 9.88018H28.4673V13.9891H29.7474C30.1517 13.9891 30.6231 13.9219 31.0261 13.9219C31.4318 13.8548 31.8361 13.6519 32.239 13.3833C32.509 13.249 32.7105 12.979 32.8448 12.709C32.9805 12.439 33.0462 12.1704 33.0462 11.8332L33.049 11.8346ZM44.7713 10.9588L49.0831 16.8878H45.4456L41.201 10.6888V16.8878H38.1694V0.718073H42.8855C43.6269 0.785225 44.367 0.852377 45.1085 0.91953C45.7828 1.05523 46.4557 1.39239 47.0615 1.86386C47.6015 2.40248 48.0716 3.00965 48.4087 3.68257C48.7459 4.35549 48.9488 5.09697 48.9488 5.9056C48.9488 6.0399 48.9488 6.24276 48.8802 6.44421C48.8802 6.64707 48.8131 6.91568 48.8131 7.05138C48.6788 7.52285 48.4759 7.92716 48.2744 8.33148C48.0716 8.73579 47.8701 9.07295 47.6015 9.41011C47.1972 9.81303 46.7929 10.1502 46.3214 10.3516C45.7828 10.6217 45.3099 10.8231 44.7713 10.9588ZM44.5013 8.19717C44.7699 8.06287 44.9728 7.92716 45.1756 7.79286C45.4442 7.5914 45.6471 7.25424 45.7814 6.98563C45.8486 6.64847 45.9157 6.31131 45.9829 6.0413C45.9157 5.63699 45.8472 5.30122 45.7129 5.03122C45.5786 4.69545 45.3757 4.42544 45.1071 4.22259C44.7028 3.95398 44.3656 3.75112 43.9613 3.75112C43.6241 3.68397 43.287 3.68397 42.8155 3.68397H41.1997V8.40003H43.6913C43.9613 8.33288 44.2313 8.26432 44.5013 8.19717ZM58.5809 0.718073L65.3857 16.8864H62.0855L60.3325 12.709H54.6049L52.7862 16.8864H49.486L56.2236 0.718073H58.5809ZM59.121 9.81303L57.4379 4.89551L55.6864 9.81303H59.121ZM102.173 22.3202L102.177 22.3286H102.168L99.6712 26.6277H102.1V27.1887H98.6849L101.209 22.8448H98.9185V22.302L96.5808 16.8864H96.5766L96.4395 16.559V16.5548L94.8264 12.7104H89.1003L87.2816 16.8878H83.9799L90.7176 0.718073H93.0749L99.6544 16.352L102.166 22.302H102.184L102.173 22.3202ZM93.6135 9.81303L91.9305 4.89551L90.1775 9.81303H93.6135Z" fill="white"/>
</svg>
