<svg width="138" height="44" viewBox="0 0 138 44" fill="none" xmlns="http://www.w3.org/2000/svg">
<g clip-path="url(#clip0_24_936)">
<path d="M51.0943 35.2884C51.0784 35.1815 50.9946 35.1109 50.8586 35.1109C50.9946 35.1109 51.0807 35.1815 51.0943 35.2884Z" fill="white"/>
<path d="M50.8586 35.1109C50.6387 35.1109 50.3577 35.2884 50.2354 35.5046C50.36 35.2884 50.641 35.1109 50.8586 35.1109Z" fill="white"/>
<path d="M49.1181 37.2706C49.2088 37.1363 49.2971 37.0066 49.381 36.8792C49.2971 37.0066 49.2088 37.1386 49.1181 37.2706Z" fill="white"/>
<path d="M47.9147 38.8386C47.9759 38.7703 48.0371 38.6998 48.096 38.6292C48.0348 38.6998 47.9737 38.7703 47.9147 38.8386Z" fill="white"/>
<path d="M46.0314 38.1832C45.9975 38.2993 45.9657 38.4108 45.9408 38.52C45.968 38.413 45.9997 38.2993 46.0314 38.1832Z" fill="white"/>
<path d="M46.2989 28.0448C46.2445 28.1995 46.1901 28.3566 46.147 28.4749C46.1878 28.3566 46.2445 28.2018 46.2989 28.0448Z" fill="white"/>
<path d="M46.6841 23.4068C45.6099 24.1738 44.5244 25.3207 43.704 26.2834C44.5244 25.3207 45.6076 24.1738 46.6841 23.4068Z" fill="white"/>
<path d="M46.2875 37.3753C46.3646 37.1523 46.419 36.9998 46.419 36.9998C46.419 36.9952 46.4235 36.9884 46.4258 36.9816C46.4258 36.9861 46.4212 36.993 46.419 36.9998C46.419 36.9998 46.3623 37.1523 46.2875 37.3753Z" fill="white"/>
<path d="M26.3467 38.4768C26.5031 38.3129 26.6595 38.1263 26.8158 37.9215C26.6595 38.1286 26.5031 38.3129 26.3467 38.4768Z" fill="white"/>
<path d="M26.1745 25.2183C26.417 25.2798 26.6209 25.3321 26.63 25.3321C26.6209 25.3321 26.4147 25.282 26.1745 25.2183Z" fill="white"/>
<path d="M28.7784 22.9358C28.7422 22.954 28.7059 22.9744 28.6696 22.9927C28.7059 22.9744 28.7444 22.954 28.7784 22.9358Z" fill="white"/>
<path d="M51.0943 35.3567C51.0898 35.4045 51.0716 35.4568 51.0422 35.5137C51.0716 35.4591 51.0875 35.4068 51.0943 35.3567Z" fill="white"/>
<path d="M32.3319 24.4924C32.2095 24.572 32.1121 24.6926 32.0736 24.8292C32.0736 24.8292 29.5195 34.3509 26.8158 37.9215C29.5217 34.3509 32.0736 24.8292 32.0736 24.8292C32.1098 24.6926 32.2073 24.572 32.3319 24.4924Z" fill="white"/>
<path d="M47.2258 23.0541C47.4048 22.9494 47.5816 22.8584 47.7583 22.7833C47.5838 22.8584 47.4071 22.9494 47.2258 23.0541Z" fill="white"/>
<path d="M46.8042 40.9619C46.5368 41.1598 46.2649 41.3282 45.9929 41.4557C46.2649 41.3282 46.5346 41.1598 46.8042 40.9619Z" fill="white"/>
<path d="M49.7481 27.6875C49.7481 27.6875 50.1878 26.4882 50.4326 25.4778C50.1855 26.4882 49.7481 27.6875 49.7481 27.6875Z" fill="white"/>
<path d="M68.1229 26.6953C68.03 27.0162 67.9213 27.353 67.8034 27.7012C67.9213 27.3552 68.03 27.0162 68.1229 26.6953Z" fill="white"/>
<path d="M57.0342 23.0541C57.2132 22.9494 57.39 22.8584 57.5667 22.7833C57.3922 22.8584 57.2155 22.9494 57.0342 23.0541Z" fill="white"/>
<path d="M68.2839 29.3624C68.4742 29.0711 68.6737 28.7707 68.8776 28.4703C68.6737 28.7707 68.4765 29.0689 68.2839 29.3624Z" fill="white"/>
<path d="M67.6765 30.3091C67.8691 30.0042 68.0731 29.6879 68.2839 29.3624C68.0708 29.6879 67.8691 30.0042 67.6765 30.3091Z" fill="white"/>
<path d="M66.3575 32.4643C66.4346 32.3345 66.5207 32.1889 66.6136 32.0341C66.5207 32.1912 66.4346 32.3345 66.3575 32.4643Z" fill="white"/>
<path d="M68.2907 26.0786C68.2431 26.2743 68.1864 26.4814 68.123 26.6953C68.1864 26.4814 68.2408 26.2765 68.2907 26.0786Z" fill="white"/>
<path d="M71.3456 32.8306C71.5631 32.2867 71.7898 31.7064 72.0141 31.1238C71.7898 31.7064 71.5631 32.2845 71.3456 32.8306Z" fill="white"/>
<path d="M70.3779 35.2156C70.4799 34.9676 70.6046 34.6672 70.7405 34.3326C70.6046 34.6672 70.4822 34.9653 70.3779 35.2156Z" fill="white"/>
<path d="M80.6304 41.3897C80.6304 41.3897 80.6191 41.3988 80.6123 41.4033C80.6168 41.3988 80.6236 41.3942 80.6304 41.3897Z" fill="white"/>
<path d="M70.9875 26.8842C70.8153 27.1095 70.6363 27.3439 70.455 27.5896C70.6363 27.3439 70.813 27.1095 70.9875 26.8842Z" fill="white"/>
<path d="M52.2614 28.4271C52.1957 28.4271 52.1436 28.4112 52.105 28.3861C52.1436 28.4112 52.1934 28.4271 52.2614 28.4271Z" fill="white"/>
<path d="M72.8119 28.987C72.9093 28.7161 73 28.4544 73.0838 28.2041C73 28.4544 72.9071 28.7161 72.8119 28.987Z" fill="white"/>
<path d="M21.0482 15.4805C21.0731 15.46 21.1003 15.4349 21.1252 15.4099C21.098 15.4372 21.0731 15.46 21.0482 15.4805Z" fill="white"/>
<path d="M21.3111 15.1823C21.3338 15.1505 21.3542 15.1186 21.3746 15.089C21.3542 15.1209 21.3338 15.1527 21.3111 15.1823Z" fill="white"/>
<path d="M7.95149 21.7364C7.89257 21.4952 7.84271 21.2563 7.80872 21.0173C7.84271 21.254 7.8903 21.4952 7.95149 21.7364Z" fill="white"/>
<path d="M20.885 15.5578C20.9077 15.5578 20.9303 15.551 20.9575 15.5396C20.9326 15.551 20.9077 15.5578 20.885 15.5578Z" fill="white"/>
<path d="M21.2272 15.2938C21.2522 15.2643 21.2748 15.2324 21.2975 15.2028C21.2748 15.2347 21.2522 15.2643 21.2272 15.2938Z" fill="white"/>
<path d="M20.2093 21.7045C20.2093 21.7045 20.1915 21.7045 20.1848 21.7023C20.1937 21.7023 20.2004 21.7023 20.2093 21.7045Z" fill="white"/>
<path d="M20.2709 21.7114C20.357 21.7114 20.4431 21.6841 20.5224 21.6363C20.4431 21.6841 20.3547 21.7114 20.2709 21.7114Z" fill="white"/>
<path d="M5.49258 32.1366C5.54697 32.2048 5.58323 32.2845 5.60136 32.371C5.5855 32.2845 5.54697 32.2026 5.49258 32.1366Z" fill="white"/>
<path d="M8.08519 22.2166C8.03533 22.0573 7.99 21.898 7.95148 21.7365C7.99227 21.8958 8.03759 22.0573 8.08519 22.2166Z" fill="white"/>
<path d="M21.3859 15.0731C21.4063 15.0412 21.4244 15.0094 21.4403 14.9821C21.4244 15.0116 21.4063 15.0412 21.3859 15.0731Z" fill="white"/>
<path d="M29.1705 22.6875C29.1705 22.6875 29.179 22.6875 29.1833 22.6854C29.179 22.6854 29.1747 22.6854 29.1705 22.6875Z" fill="white"/>
<path d="M24.7354 24.8793C24.647 24.861 24.5564 24.8406 24.4634 24.8224C24.5541 24.8406 24.6447 24.861 24.7354 24.8793Z" fill="white"/>
<path d="M29.4719 22.7605C29.4719 22.7605 29.4878 22.7696 29.4946 22.7742C29.4878 22.7696 29.4787 22.7651 29.4719 22.7605Z" fill="white"/>
<path d="M29.3858 22.7173C29.3858 22.7173 29.396 22.7214 29.4001 22.7234C29.396 22.7214 29.3899 22.7193 29.3858 22.7173Z" fill="white"/>
<path d="M29.286 22.6877C29.286 22.6877 29.2974 22.6877 29.3042 22.69C29.2974 22.69 29.2928 22.69 29.286 22.6877Z" fill="white"/>
<path d="M21.2136 15.312C21.1887 15.3416 21.1638 15.3712 21.1389 15.3962C21.1638 15.3689 21.1887 15.3416 21.2136 15.312Z" fill="white"/>
<path d="M20.842 15.551C20.7808 15.526 20.706 15.485 20.6267 15.4395C20.706 15.485 20.7831 15.526 20.842 15.551Z" fill="white"/>
<path d="M22.4714 13.5666C22.2334 13.5666 21.9592 13.7554 21.8618 13.9853C21.9592 13.7554 22.2312 13.5666 22.4714 13.5666Z" fill="white"/>
<path d="M9.86192 25.8919C9.86192 25.8919 8.77411 24.2716 8.16449 22.4556C8.77638 24.2716 9.86192 25.8919 9.86192 25.8919Z" fill="white"/>
<path d="M3.69544 39.8923C3.71583 39.8331 3.74076 39.7648 3.77249 39.6943C3.74303 39.7648 3.71583 39.8331 3.69544 39.8923Z" fill="white"/>
<path d="M22.7841 14.0058C22.8408 13.7941 22.7411 13.6166 22.5553 13.5757C22.7411 13.6166 22.8431 13.7941 22.7841 14.0058Z" fill="white"/>
<path d="M11.7089 28.5659C11.8041 28.7002 11.897 28.8367 11.9695 28.9369C11.897 28.8345 11.8018 28.7002 11.7089 28.5659Z" fill="white"/>
<path d="M25.7847 25.1205C25.7258 25.1068 25.66 25.0909 25.5898 25.0727C25.66 25.0886 25.7235 25.1045 25.7847 25.1205Z" fill="white"/>
<path d="M2.32888 40.9709C2.32435 40.9869 2.32435 41.0005 2.32208 41.0142C2.32435 41.0005 2.32435 40.9846 2.32888 40.9709Z" fill="white"/>
<path d="M112.884 31.1421C112.802 31.0465 112.712 30.9463 112.626 30.8508C112.712 30.9463 112.802 31.0488 112.884 31.1421Z" fill="white"/>
<path d="M128.616 37.2479C128.616 37.2479 128.627 37.254 128.631 37.2581C128.627 37.254 128.622 37.2499 128.616 37.2479Z" fill="white"/>
<path d="M123.877 23.4455C123.902 23.3704 123.925 23.2407 123.943 23.0996C123.927 23.243 123.905 23.3727 123.877 23.4455Z" fill="white"/>
<path d="M117.772 22.9426C117.75 23.0154 117.727 23.086 117.706 23.1451C117.727 23.086 117.75 23.0177 117.772 22.9426Z" fill="white"/>
<path d="M111.005 35.136C111.046 34.9926 111.089 34.8515 111.125 34.7423C111.089 34.8515 111.046 34.9903 111.005 35.136Z" fill="white"/>
<path d="M134.096 21.5157C134.096 21.5157 134.085 21.5248 134.078 21.5294C134.082 21.5248 134.089 21.5203 134.096 21.5157Z" fill="white"/>
<path d="M128.58 37.241C128.58 37.241 128.575 37.241 128.573 37.241C128.582 37.241 128.589 37.241 128.598 37.2455C128.591 37.2455 128.587 37.241 128.58 37.241Z" fill="white"/>
<path d="M120.009 28.6092C120.104 28.7685 120.197 28.93 120.286 29.0939C120.199 28.93 120.106 28.7685 120.009 28.6092Z" fill="white"/>
<path d="M110.427 28.4954C110.52 28.6046 110.613 28.7093 110.686 28.789C110.611 28.7093 110.518 28.6046 110.427 28.4954Z" fill="white"/>
<path d="M102.448 22.649C102.405 22.8948 102.3 23.2908 102.221 23.5275C102.303 23.2908 102.405 22.8948 102.448 22.649Z" fill="white"/>
<path d="M99.7056 22.6945C99.6965 22.7127 99.6852 22.7332 99.6761 22.7537C99.6875 22.7332 99.6965 22.7127 99.7056 22.6945Z" fill="white"/>
<path d="M100.793 26.3699C100.981 26.3699 101.179 26.2606 101.301 26.1059C101.179 26.2606 100.979 26.3699 100.793 26.3699Z" fill="white"/>
<path d="M106.511 39.89C106.314 39.585 106.144 39.2619 106.001 38.9296C106.144 39.2619 106.314 39.5873 106.511 39.89Z" fill="white"/>
<path d="M105.548 37.5847C105.464 37.2524 105.398 36.927 105.346 36.6243C105.396 36.9292 105.462 37.2524 105.548 37.5847Z" fill="white"/>
<path d="M102.409 37.9556C102.776 37.389 103.132 36.7745 103.449 36.1896C103.13 36.7745 102.774 37.389 102.409 37.9556Z" fill="white"/>
<path d="M134.103 21.5112C134.173 21.4429 134.228 21.3632 134.257 21.2768C134.228 21.3632 134.171 21.4429 134.103 21.5112Z" fill="white"/>
<path d="M132.326 21.964C132.448 21.8138 132.643 21.7069 132.829 21.7069C132.646 21.7069 132.448 21.8138 132.326 21.964Z" fill="white"/>
<path d="M127.506 35.9234C127.547 35.7982 127.587 35.6753 127.619 35.5798C127.585 35.6753 127.547 35.7982 127.506 35.9234Z" fill="white"/>
<path d="M127.025 41.4602C127.234 41.3715 127.433 41.1735 127.504 40.9755C127.436 41.1758 127.234 41.3738 127.025 41.4602Z" fill="white"/>
<path d="M128.646 37.2729C128.646 37.2729 128.652 37.2836 128.656 37.2901C128.652 37.2836 128.65 37.2772 128.646 37.2729Z" fill="white"/>
<path d="M69.1179 28.1176C69.2085 27.9833 69.3014 27.8513 69.3966 27.7171C69.3037 27.8513 69.2108 27.9833 69.1179 28.1176Z" fill="white"/>
<path d="M101.081 20.8011C101.145 20.742 101.21 20.6873 101.276 20.6373C101.21 20.6873 101.147 20.742 101.081 20.8011Z" fill="white"/>
<path d="M126.352 17.3033C126.296 17.3648 126.25 17.433 126.225 17.5059C126.25 17.4308 126.296 17.3625 126.352 17.3033Z" fill="white"/>
<path d="M128.68 37.4959C128.68 37.5096 128.675 37.5255 128.671 37.5414C128.673 37.5255 128.677 37.5118 128.68 37.4959Z" fill="white"/>
<path d="M128.684 37.4231C128.684 37.4342 128.684 37.4475 128.682 37.4587C128.682 37.4475 128.684 37.4342 128.684 37.4231Z" fill="white"/>
<path d="M128.668 37.3116C128.668 37.3116 128.673 37.3271 128.675 37.336C128.675 37.3271 128.671 37.3183 128.668 37.3116Z" fill="white"/>
<path d="M129.867 11.9462C129.826 11.9986 129.795 12.0532 129.774 12.1124C129.795 12.0532 129.826 11.9963 129.867 11.9462Z" fill="white"/>
<path d="M121.011 37.7349C121.029 37.6689 121.049 37.6006 121.067 37.5323C121.047 37.5983 121.029 37.6666 121.011 37.7349Z" fill="white"/>
<path d="M128.664 37.5733C128.662 37.5869 128.655 37.6029 128.65 37.6165C128.655 37.6029 128.659 37.5869 128.664 37.5733Z" fill="white"/>
<path d="M120.929 38.0557C120.949 37.9647 120.979 37.8509 121.011 37.7349C120.979 37.8532 120.949 37.9647 120.929 38.0557Z" fill="white"/>
<path d="M105.865 38.5951C105.738 38.2583 105.634 37.9192 105.548 37.5869C105.632 37.9192 105.736 38.2606 105.865 38.5951Z" fill="white"/>
<path d="M56.4925 23.4068C54.3192 24.9566 52.1096 28.0584 52.1096 28.0584C52.0915 28.0835 52.0756 28.1085 52.0643 28.1335C52.0756 28.1085 52.0915 28.0857 52.1096 28.0584C52.1096 28.0584 54.3192 24.9589 56.4925 23.4068Z" fill="white"/>
<path d="M57.4081 33.6477C57.3537 33.6477 57.3333 33.5726 57.3492 33.4588C57.3356 33.5726 57.356 33.6477 57.4081 33.6477Z" fill="white"/>
<path d="M65.4692 33.4975C65.4805 33.4269 65.5077 33.3359 65.553 33.2357C65.5077 33.3359 65.4782 33.4246 65.4692 33.4975Z" fill="white"/>
<path d="M56.1095 28.0448C56.0551 28.1995 56.0007 28.3566 55.9622 28.4749C56.003 28.3566 56.0574 28.1995 56.1095 28.0448Z" fill="white"/>
<path d="M71.9484 25.719C72.0912 25.5597 72.2272 25.4209 72.3496 25.3071C72.2272 25.4209 72.0935 25.5597 71.9484 25.719Z" fill="white"/>
<path d="M59.8443 40.9869C59.8216 41.046 59.8126 41.1007 59.8171 41.1507C59.8148 41.1007 59.8239 41.0438 59.8443 40.9869Z" fill="white"/>
<path d="M63.2437 40.9869C63.221 41.0461 63.1848 41.1007 63.1417 41.1507C63.1848 41.1007 63.2188 41.0438 63.2437 40.9869L66.1468 34.0982C66.1649 34.055 66.1898 34.0072 66.2148 33.9572C66.1898 34.0072 66.1672 34.055 66.1468 34.0982L63.2437 40.9869Z" fill="white"/>
<path d="M66.5411 33.3563C66.5525 33.3359 66.5661 33.3177 66.5774 33.2994C66.5661 33.3177 66.5547 33.3381 66.5411 33.3563Z" fill="white"/>
<path d="M73.3898 39.651C73.3898 39.651 73.383 39.6556 73.3784 39.6579C73.383 39.6579 73.3852 39.6533 73.3898 39.651Z" fill="white"/>
<path d="M72.5762 23.7983C72.4583 23.9143 72.3382 24.035 72.2181 24.1601C72.3382 24.035 72.4583 23.9121 72.5762 23.7983Z" fill="white"/>
<path d="M76.9863 26.5952C76.9206 26.85 76.8435 27.1186 76.7551 27.4008C76.8412 27.1208 76.9183 26.85 76.9863 26.5952Z" fill="white"/>
<path d="M72.8526 36.9952C72.9456 36.7631 73.1087 36.3876 73.2152 36.1623C73.1087 36.3899 72.9456 36.7631 72.8526 36.9952Z" fill="white"/>
<path d="M88.8525 17.7516C88.9749 17.6014 89.1698 17.4945 89.3556 17.4945C89.172 17.4945 88.9749 17.6014 88.8525 17.7516Z" fill="white"/>
<path d="M94.883 17.2305C94.9238 17.1782 94.9555 17.1235 94.9759 17.0644C94.9555 17.1235 94.9238 17.1804 94.883 17.2305Z" fill="white"/>
<path d="M95.547 34.7764C95.5651 34.7172 95.5855 34.6467 95.6059 34.5716C95.5832 34.6467 95.5628 34.715 95.547 34.7764Z" fill="white"/>
<path d="M99.3543 31.9932C99.3135 32.0455 99.2818 32.1002 99.2614 32.1593C99.2818 32.1002 99.3135 32.0433 99.3543 31.9932Z" fill="white"/>
<path d="M95.7147 34.2257C95.751 34.1096 95.7872 34.0004 95.819 33.9093C95.7895 33.9981 95.7532 34.1096 95.7147 34.2257Z" fill="white"/>
<path d="M98.5996 34.0846C98.5339 34.2758 98.4591 34.4829 98.407 34.6308C98.407 34.6308 98.3526 34.7832 98.2778 34.9835C98.3526 34.781 98.407 34.6308 98.407 34.6308C98.4591 34.4829 98.5316 34.278 98.5996 34.0846Z" fill="white"/>
<path d="M96.8365 18.0748C96.7254 18.1772 96.6167 18.2887 96.5056 18.4048C96.6144 18.2887 96.7254 18.1795 96.8365 18.0748Z" fill="white"/>
<path d="M97.317 29.656C97.4393 29.5058 97.6342 29.3988 97.8201 29.3988C97.6365 29.3988 97.4393 29.5058 97.317 29.656Z" fill="white"/>
<path d="M80.635 41.3851C80.7053 41.3169 80.7597 41.2372 80.7891 41.1507C80.7597 41.2372 80.703 41.3169 80.635 41.3851Z" fill="white"/>
<path d="M85.2763 28.2314C85.3987 28.0971 85.58 28.0038 85.75 28.0038C85.5777 28.0038 85.3987 28.0971 85.2763 28.2314Z" fill="white"/>
<path d="M94.296 21.518C94.7765 20.6919 95.4926 19.5563 96.2654 18.6688C95.4926 19.5563 94.7742 20.6919 94.296 21.518Z" fill="white"/>
<path d="M70.2827 35.4478C70.1331 35.805 70.047 36.0144 70.047 36.0144C70.0402 36.0281 70.0334 36.0463 70.0266 36.0599C70.0334 36.044 70.0402 36.0281 70.047 36.0144C70.047 36.0144 70.1354 35.805 70.2827 35.4478Z" fill="white"/>
<path d="M98.824 26.3698H100.793C100.979 26.3698 101.179 26.2606 101.301 26.1059C101.342 26.0535 101.374 25.9989 101.394 25.9397L101.831 24.6608L102.219 23.5297C102.3 23.293 102.402 22.8971 102.446 22.6513C102.446 22.6513 102.717 21.1311 102.337 20.5622C102.248 20.4302 102.126 20.3505 101.956 20.3505C101.734 20.3505 101.5 20.462 101.272 20.6373C101.206 20.6873 101.142 20.742 101.077 20.8011C101.045 20.8307 101.013 20.8626 100.982 20.8922C100.918 20.9559 100.857 21.0219 100.796 21.0901C100.184 21.7774 99.7011 22.6945 99.7011 22.6945C99.692 22.7127 99.6807 22.7332 99.6716 22.7537C99.5583 22.979 99.4178 23.309 99.343 23.5275L98.9555 24.6585L98.5181 25.9375C98.4365 26.1741 98.5747 26.3676 98.824 26.3676V26.3698Z" fill="white"/>
<path d="M136.394 15.5806L137.38 12.7041C137.609 12.0373 137.509 11.3068 137.112 10.7515C136.716 10.1939 136.061 9.86167 135.361 9.86167H130.375C129.346 9.86167 128.394 10.5444 128.061 11.5184L126.778 15.2552C125.77 15.2756 124.841 15.9515 124.512 16.9119L124.421 17.1782C124.127 16.6616 123.771 16.1655 123.338 15.7262C122.225 14.5975 120.764 14.0012 119.109 14.0012C117.455 14.0012 115.964 14.272 114.482 14.8046C112.968 15.3485 111.606 16.17 110.436 17.2464C110.074 17.5787 109.745 17.9382 109.441 18.3137C109.083 17.3966 108.562 16.475 107.81 15.7149C106.697 14.5929 105.235 13.999 103.581 13.999C101.306 13.999 99.2455 14.4928 97.4393 15.4668L98.3889 12.6995C98.6178 12.0327 98.5181 11.3022 98.1215 10.7469C97.7249 10.1894 97.0699 9.85712 96.3696 9.85712H85.3533C84.3245 9.85712 83.3726 10.5398 83.0395 11.5139L78.8877 23.623C78.3846 21.8002 76.8662 20.6486 74.7948 20.6486C73.4419 20.6486 71.9869 21.5931 70.1671 23.7118C69.7297 21.9049 68.2431 20.6486 66.3711 20.6486C64.9275 20.6486 63.4703 21.8024 62.0902 23.3932C61.6754 21.7956 60.3225 20.7192 58.5729 20.7192C56.9616 20.7192 55.2143 21.7751 53.0773 24.044C52.837 24.2989 52.6104 24.5515 52.3951 24.7973C52.4064 24.6767 52.4132 24.5606 52.4132 24.456C52.4132 22.2917 50.879 20.7215 48.7623 20.7215C47.2348 20.7215 45.5873 21.6727 43.5975 23.7027C42.9992 20.7875 40.7715 20.6168 40.2706 20.6168C38.5732 20.6168 37.2837 21.9071 37.2134 23.6435C37.184 23.5912 37.1522 23.5388 37.1183 23.4888C36.7285 22.9107 36.0667 22.5648 35.346 22.5648H32.6469C32.2413 22.5648 31.8469 22.6741 31.5002 22.8652C31.4345 22.3759 31.2192 21.9094 30.8588 21.5476C30.4215 21.1061 29.8232 20.8535 29.2203 20.8535C28.7875 20.8535 28.3795 20.99 28.0532 21.2403C27.7473 21.229 27.0946 21.1334 26.5643 21.056C25.7598 20.9377 24.9983 20.8239 24.4295 20.8239C23.8085 20.8239 23.2351 20.9445 22.7071 21.1812L24.5314 14.4791C24.715 13.8078 24.5836 13.1137 24.1756 12.5766C23.77 12.0441 23.149 11.7391 22.4691 11.7391C21.6012 11.7391 20.7581 12.2489 20.3207 13.009C19.174 12.258 17.2024 11.1839 15.3123 11.1839C12.5384 11.1839 10.1543 12.1442 8.41833 13.9625C6.82288 15.6352 5.94357 17.8905 5.94357 20.3118C5.94357 23.2202 8.11011 26.5337 8.35714 26.9024C8.49991 27.1163 8.73787 27.4645 8.88518 27.6784L9.96165 29.2282C10.1067 29.4375 10.3446 29.7766 10.4897 29.9837C11.5072 31.4288 13.0143 34.1346 13.0143 35.3476C13.0143 36.1464 12.7945 36.8906 12.4115 37.3867C11.9922 37.9283 11.3667 38.1923 10.4942 38.1923C9.08007 38.1923 7.76564 34.6035 7.39624 32.1229C7.2308 30.9805 6.25178 30.118 5.12092 30.118C4.07164 30.118 3.11074 30.8735 2.83653 31.9135L0.574798 40.5044C0.400295 41.1712 0.534005 41.8585 0.941932 42.391C1.34986 42.9235 1.97761 43.2308 2.66429 43.2308H2.72775C3.75889 43.2308 4.71072 42.5458 5.04386 41.5649L5.10958 41.3715C6.3311 42.2181 8.60189 43.5448 10.807 43.5448C13.667 43.5448 16.0896 42.5344 17.8165 40.625C18.0522 40.3656 18.2698 40.088 18.4715 39.8012C19.1536 42.1862 20.9734 43.7178 23.3552 43.7178C24.7422 43.7178 26.2017 42.853 27.9059 41.0074C28.1144 41.4784 28.3909 41.9017 28.7331 42.2704C29.5965 43.2034 30.8384 43.7178 32.2277 43.7178C36.1279 43.7178 39.0763 39.271 40.4859 36.6197C41.5715 34.5784 42.4462 32.3209 43.0151 30.1749C43.2575 30.118 43.4978 30.0269 43.7176 29.9018L41.7618 35.4273C41.6848 35.6457 41.5488 36.0121 41.4649 36.226C41.2156 36.8655 40.64 38.4608 40.64 39.4917C40.64 41.9882 42.2785 43.5403 44.9142 43.5403C46.555 43.5403 48.2161 42.498 49.9747 40.3633L49.9679 40.3838C49.7391 41.0506 49.841 41.7811 50.2354 42.3364C50.632 42.894 51.2869 43.2262 51.9872 43.2262H54.4778C55.4183 43.2262 56.3339 42.6595 56.7554 41.813C57.8205 39.6806 58.9786 37.4322 60.0981 35.3317L58.1559 40.3178C57.8953 40.9892 57.9724 41.7311 58.3644 42.3068C58.7565 42.8826 59.416 43.2262 60.1321 43.2262H62.6227C63.604 43.2262 64.5445 42.5913 64.9185 41.681L67.808 34.8265C67.8782 34.674 68.0232 34.4077 68.1071 34.2757C68.6782 33.3746 69.3014 32.4278 69.9156 31.5176C69.4261 32.7647 68.8912 34.08 68.3768 35.3021C68.2861 35.5206 68.1275 35.887 68.03 36.1032C67.7354 36.7654 67.0533 38.4199 67.0533 39.4917C67.0533 41.9882 68.6918 43.5403 71.3275 43.5403C72.0934 43.5403 72.8662 43.3081 73.6504 42.8416C74.0402 43.1921 74.5546 43.3969 75.1008 43.3969H80.1908C81.2197 43.3969 82.1715 42.7142 82.5047 41.7402L86.5907 29.8244H89.2377L88.4105 32.2367C88.3085 32.5325 88.1794 32.9877 88.1091 33.2949C87.7533 34.8424 87.0122 38.6406 87.8122 40.4407C88.7641 42.589 90.9623 43.6768 94.3436 43.6768C97.7249 43.6768 100.202 42.8211 102.158 41.1303C102.781 40.5932 103.424 39.7375 104.018 38.8113C104.383 39.9105 104.95 41.0369 105.831 41.9359C106.949 43.076 108.417 43.6791 110.078 43.6791C112.857 43.6791 115.32 42.9213 117.405 41.4261C117.931 41.0483 118.42 40.6319 118.874 40.1744C118.896 40.8071 119.014 41.3305 119.236 41.7311C120.308 43.6814 122.912 43.6814 123.769 43.6814C124.48 43.6814 125.235 43.6222 126.015 43.5038C126.751 43.3923 127.261 43.2877 127.281 43.2831C128.149 43.101 128.927 42.4138 129.217 41.5717L130.354 38.256C130.606 37.5209 130.524 36.7813 130.13 36.226C129.965 35.9939 129.752 35.805 129.509 35.6685L133.67 23.532C134.692 23.5252 135.637 22.847 135.973 21.8753L137.264 18.1067C137.493 17.4399 137.393 16.7094 136.997 16.1541C136.836 15.9265 136.63 15.7353 136.394 15.5897V15.5806ZM122.142 28.7753C121.591 27.5282 120.632 26.2856 120.41 26.008C120.295 25.8624 120.138 25.6803 119.982 25.5096H123.261L122.142 28.7753ZM92.8003 20.478C92.6779 20.4575 92.5555 20.4416 92.4286 20.4416H89.8088L90.1963 19.3151H93.5255C93.2535 19.727 93.0088 20.1252 92.8025 20.478H92.8003ZM37.3131 25.4891C37.3585 25.3776 37.3925 25.2638 37.4174 25.1501C37.4899 25.4049 37.5738 25.6507 37.6576 25.8919C37.8956 26.5883 38.1426 27.3074 38.1426 28.3224C38.1426 30.0565 37.4514 32.4802 36.3795 34.4965C35.4888 36.1737 34.6503 36.9884 34.1812 37.2888C34.1585 37.1318 34.1427 36.9201 34.1427 36.6402C34.1427 35.9234 34.3443 34.1028 35.695 29.9837C36.4928 27.551 37.3041 25.5096 37.3109 25.4891H37.3131ZM21.1796 29.8585C20.7037 30.6277 20.2867 31.356 19.9264 32.0455C19.1241 28.93 16.8828 25.9215 16.5769 25.5233C16.4409 25.3435 16.2165 25.0363 16.0873 24.8519L15.2216 23.6139C15.0743 23.4023 14.8296 23.0587 14.6755 22.847C13.9956 21.9071 13.0392 20.123 13.0392 19.1011C13.0392 18.2978 13.2885 16.4317 15.5933 16.4317C15.7225 16.4317 16.357 16.7958 17.0913 18.5823C17.6964 20.0547 17.9887 21.584 17.991 21.5976C18.195 22.6991 19.1763 23.5297 20.2731 23.5297C20.3094 23.5297 20.3457 23.5275 20.3819 23.5252C20.3207 23.6367 20.2618 23.7527 20.2051 23.8711C19.6544 25.0181 19.3281 26.2105 19.3281 27.0708C19.3281 28.4066 20.0828 29.4808 21.1842 29.8585H21.1796ZM10.807 41.7242C10.2608 41.7242 9.69423 41.6082 9.14126 41.4261C8.98263 41.3738 8.82625 41.3169 8.67215 41.2554C8.51804 41.194 8.36394 41.128 8.21436 41.0597C6.63704 40.3406 5.3702 39.296 5.3702 39.296C5.35434 39.2824 5.33621 39.2687 5.31808 39.2551C5.17304 39.1458 4.96908 39.0252 4.78551 38.9387C4.71752 38.9069 4.64953 38.8796 4.59061 38.8591L4.0943 39.0844C4.0671 39.1253 4.03764 39.1731 4.00818 39.2255C3.95379 39.321 3.89714 39.4257 3.84501 39.535C3.81782 39.5896 3.79289 39.6442 3.77022 39.6965C3.74076 39.7671 3.71357 39.8354 3.69317 39.8945L3.5096 40.4384L3.32604 40.9823C3.24672 41.219 2.97703 41.4124 2.72775 41.4124H2.66429C2.43086 41.4124 2.28582 41.2372 2.31982 41.0165C2.32208 41.0028 2.32208 40.9869 2.32662 40.9732L3.45748 36.6789L4.58835 32.3846C4.6518 32.1434 4.89202 31.9454 5.12092 31.9454C5.26142 31.9454 5.3974 32.0228 5.48805 32.1388C5.54244 32.2071 5.5787 32.2868 5.59683 32.3732C5.59683 32.3801 5.60136 32.3869 5.60136 32.396C5.60136 32.396 5.91637 34.5488 6.77529 36.5651C6.87727 36.8018 6.98605 37.0385 7.10163 37.2683C7.21721 37.4982 7.34412 37.7235 7.47556 37.9374C8.20756 39.1208 9.19112 40.0197 10.4897 40.0197C13.6443 40.0197 14.8228 37.5483 14.8228 35.3567C14.8228 34.765 14.6437 34.0687 14.3763 33.3563C13.5718 31.2194 11.965 28.9414 11.965 28.9414C11.8925 28.839 11.7973 28.7047 11.7044 28.5705C11.6092 28.4362 11.5163 28.2997 11.4438 28.1973L11.0449 27.6215L10.3673 26.6452C10.2245 26.4404 9.99338 26.1013 9.85513 25.8942C9.85513 25.8942 8.76733 24.2739 8.15771 22.4579C8.13051 22.3782 8.10558 22.2986 8.08065 22.2189C8.0308 22.0596 7.98547 21.9003 7.94694 21.7387C7.88802 21.4975 7.83816 21.2585 7.80417 21.0196C7.77017 20.7829 7.75205 20.5485 7.75205 20.3187C7.75205 16.4909 10.4897 13.009 15.3078 13.009C15.5797 13.009 15.8607 13.0431 16.1417 13.1C18.1134 13.5051 20.1508 15.1277 20.1508 15.1277C20.2822 15.2324 20.459 15.3485 20.6199 15.4372C20.6992 15.4827 20.7762 15.5237 20.8352 15.5487C20.8465 15.5533 20.8601 15.5556 20.8737 15.5556H20.8782C20.9009 15.5556 20.9235 15.5487 20.9507 15.5374C20.9507 15.5374 20.9507 15.5374 20.953 15.5374C20.9779 15.526 21.0051 15.5078 21.0323 15.4873C21.0346 15.485 21.0391 15.4827 21.0414 15.4805C21.0663 15.46 21.0935 15.4349 21.1185 15.4099C21.123 15.4054 21.1275 15.4008 21.132 15.3963C21.157 15.3689 21.1819 15.3416 21.2068 15.3121C21.2114 15.3052 21.2159 15.3007 21.2204 15.2938C21.2454 15.2643 21.268 15.2324 21.2907 15.2028C21.2952 15.196 21.2998 15.1892 21.3043 15.1846C21.3269 15.1528 21.3473 15.1209 21.3677 15.0913C21.37 15.0868 21.3745 15.0799 21.3768 15.0754C21.3972 15.0435 21.4153 15.0117 21.4312 14.9843C21.4312 14.9821 21.4335 14.9775 21.4357 14.9752C21.4516 14.9457 21.4652 14.9183 21.4765 14.8933L21.6646 14.4427L21.8527 13.9921C21.9502 13.7623 22.2221 13.5734 22.4623 13.5734C22.4918 13.5734 22.5213 13.5757 22.5462 13.5825C22.732 13.6235 22.834 13.801 22.7751 14.0126L21.7847 17.6447L20.7944 21.2768C20.7536 21.4269 20.6448 21.5612 20.5111 21.6409C20.4318 21.6887 20.3434 21.716 20.2595 21.716C20.2391 21.716 20.2187 21.7114 20.2006 21.7091C20.1915 21.7091 20.1825 21.7091 20.1757 21.7069C20.0624 21.6818 19.9581 21.6136 19.8788 21.518C19.8403 21.4702 19.8085 21.4156 19.7859 21.3587C19.7746 21.3291 19.7655 21.2995 19.761 21.2699C19.761 21.2699 19.557 20.173 19.1173 18.869C19.0154 18.5686 18.902 18.2569 18.7751 17.9451C18.5644 17.4262 18.3151 16.9051 18.0318 16.4363C17.6896 15.8742 17.293 15.3849 16.8397 15.0549C16.6879 14.9457 16.5293 14.8524 16.3661 14.7818C16.1191 14.6748 15.8585 14.618 15.582 14.618C12.6018 14.618 11.2149 16.7753 11.2149 19.108C11.2149 19.2377 11.2217 19.372 11.2376 19.5062C11.2512 19.6405 11.2738 19.777 11.301 19.9136C11.4234 20.5303 11.6636 21.1652 11.9333 21.7433C12.5021 22.9631 13.2024 23.9257 13.2024 23.9257C13.3497 24.1282 13.5877 24.4605 13.7304 24.6653L14.1905 25.323L14.5962 25.9033C14.7027 26.0581 14.8658 26.2811 15.0041 26.4677C15.0494 26.5291 15.0947 26.5883 15.131 26.6384C15.131 26.6384 17.6261 29.9063 18.2494 32.8671C18.3377 33.2904 18.3899 33.7068 18.3899 34.1073C18.3899 38.0739 15.7905 41.7288 10.8002 41.7288L10.807 41.7242ZM32.2277 41.8972C30.426 41.8972 29.2475 40.6797 29.2475 38.6247C29.2475 38.5018 29.2611 38.3425 29.2838 38.1672C29.379 37.4049 29.6305 36.3194 29.6305 36.3194C29.6872 36.0759 29.6872 35.8756 29.6305 35.8756C29.5739 35.8756 29.4152 36.0485 29.2815 36.2579C29.2815 36.2579 28.0124 38.2446 26.494 39.8604C25.4561 40.9664 24.3003 41.8949 23.3575 41.8949C21.4516 41.8949 19.9966 40.3633 19.9966 37.6142C19.9966 36.4491 20.4998 34.9949 21.225 33.5088C21.3859 33.1788 21.5581 32.8466 21.7371 32.5143C21.9162 32.1821 22.1043 31.8521 22.2969 31.5267C22.5847 31.0374 22.8839 30.5572 23.1807 30.0952C23.3802 29.788 23.5796 29.4876 23.7745 29.1986C25.1456 27.1732 26.3648 25.6826 26.3648 25.6826C26.3739 25.6712 26.383 25.6598 26.3943 25.6462C26.5371 25.4687 26.6436 25.3298 26.6345 25.3298C26.6255 25.3298 26.4192 25.2798 26.179 25.216C26.179 25.216 26.0294 25.1774 25.7915 25.1205C25.7326 25.1068 25.6668 25.0909 25.5966 25.0727C25.4923 25.0476 25.3768 25.0203 25.2566 24.993C25.1751 24.9748 25.0912 24.9543 25.0051 24.9361C24.919 24.9179 24.8306 24.8974 24.7399 24.8792C24.6515 24.861 24.5609 24.8405 24.468 24.8223C24.4227 24.8132 24.3773 24.8041 24.332 24.795C24.2414 24.7768 24.1507 24.7586 24.0623 24.7427C23.6159 24.6608 23.2034 24.5993 22.9428 24.5993C22.4238 24.5993 22.2153 24.877 22.2153 25.2616C22.2153 26.0262 23.047 26.3061 23.047 27.1755C23.047 27.733 22.63 28.1836 22.0771 28.1836C21.5921 28.1836 21.1411 27.8354 21.1411 27.0708C21.1411 26.5496 21.3836 25.6097 21.8346 24.6699C22.4941 23.3135 23.2895 22.6513 24.434 22.6513C25.2997 22.6513 27.2759 23.07 28.1076 23.07C28.2118 23.07 28.298 23.0655 28.3705 23.0587C28.588 23.0382 28.6719 22.9949 28.6719 22.9949C28.7082 22.9767 28.7467 22.9562 28.7807 22.938C28.9597 22.8425 29.1138 22.7446 29.1455 22.7036C29.1501 22.6968 29.1591 22.6923 29.1727 22.6877C29.1773 22.6877 29.1818 22.6877 29.1863 22.6854C29.1954 22.6854 29.2045 22.6832 29.2158 22.6809C29.2181 22.6809 29.2203 22.6809 29.2226 22.6809C29.2249 22.6809 29.2294 22.6809 29.2339 22.6809C29.2521 22.6809 29.2702 22.6832 29.2883 22.6877C29.2951 22.6877 29.2997 22.6877 29.3064 22.69C29.3314 22.6968 29.3586 22.7036 29.388 22.715C29.3926 22.715 29.3994 22.7196 29.4039 22.7218C29.4266 22.7309 29.4515 22.7446 29.4742 22.7583C29.4809 22.7628 29.49 22.7674 29.4968 22.7719C29.5263 22.7901 29.5535 22.8129 29.5784 22.8379C29.626 22.8857 29.6577 22.9449 29.6804 23.0109C29.728 23.1497 29.7144 23.3135 29.6396 23.4501C29.6305 23.4683 29.6192 23.4865 29.6079 23.5024C29.6079 23.5024 25.5037 29.21 23.9649 33.6841C23.6091 34.7172 23.3915 35.6821 23.3915 36.4991C23.3915 38.3789 23.8765 39.2482 24.9507 39.2482C25.2045 39.2482 25.4629 39.1595 25.7235 38.9979C25.8277 38.9319 25.932 38.8568 26.0362 38.768C26.1405 38.6793 26.2447 38.5814 26.349 38.4722C26.5054 38.3083 26.6617 38.1217 26.8181 37.9169C29.524 34.3463 32.0758 24.8246 32.0758 24.8246C32.1121 24.6881 32.2095 24.5675 32.3342 24.4878C32.4294 24.4241 32.5381 24.3854 32.6469 24.3854H35.346C35.5953 24.3854 35.7245 24.5766 35.6316 24.8087C35.6316 24.8087 33.6191 29.8608 32.7376 33.766C32.4905 34.8583 32.3342 35.8619 32.3342 36.638C32.3342 38.1354 32.7149 39.2482 33.8594 39.2482C36.6673 39.2482 39.9601 32.6008 39.9601 28.3202C39.9601 26.0581 39.0242 24.9452 39.0242 23.796C39.0242 23.0655 39.4412 22.4397 40.2729 22.4397C41.2089 22.4397 41.9363 23.2407 41.9363 25.2934C41.9363 31.0715 37.0503 41.8949 32.2322 41.8949L32.2277 41.8972ZM29.6464 26.6839C29.2906 27.8377 28.8169 29.301 28.2685 30.7893C26.8226 34.7081 25.7824 36.3489 25.2226 37.0203C25.2113 36.8769 25.2045 36.7062 25.2045 36.5037C25.2045 34.2962 27.5478 29.9427 29.6464 26.6839ZM46.8042 40.9619C46.5368 41.1598 46.2649 41.3282 45.9929 41.4557C45.6303 41.6264 45.2677 41.7219 44.9142 41.7219C43.0762 41.7219 42.453 40.7479 42.453 39.494C42.453 39.2937 42.4961 39.032 42.5618 38.7498C42.759 37.9055 43.1533 36.8906 43.1533 36.8906C43.244 36.6584 43.3867 36.2738 43.4706 36.0372L44.8666 32.0933L46.1493 28.4726C46.1901 28.3543 46.2467 28.1995 46.3011 28.0425C46.3555 27.8878 46.4099 27.7307 46.453 27.6124C46.453 27.6124 46.6411 27.0753 46.8292 26.4791C46.8994 26.2561 46.9697 26.0217 47.0309 25.8055C47.0717 25.6621 47.1079 25.5255 47.1351 25.4027C47.1782 25.2206 47.2054 25.0704 47.2054 24.9794C47.2054 24.5265 47.0331 24.3877 46.7544 24.3877C46.6569 24.3877 46.5459 24.4195 46.4235 24.4787C46.3419 24.5174 46.2581 24.5675 46.1697 24.6289C45.9929 24.7495 45.8003 24.9088 45.6031 25.0954C44.4677 26.1605 43.1352 28.0539 43.1352 28.0539C42.9924 28.2587 42.6865 28.4248 42.4576 28.4248C42.2287 28.4248 42.1607 28.2587 42.3057 28.0539C42.3057 28.0539 42.87 27.2619 43.7085 26.2788C44.5289 25.3162 45.6122 24.1692 46.6887 23.4023C46.87 23.2726 47.0513 23.1542 47.2303 23.0495C47.4093 22.9449 47.5861 22.8538 47.7629 22.7787C48.1119 22.6285 48.4518 22.5421 48.7668 22.5421C50.0155 22.5421 50.6048 23.4478 50.6048 24.456C50.6048 24.7108 50.5368 25.0772 50.4416 25.4732C50.1946 26.4836 49.7572 27.6829 49.7572 27.6829C49.6711 27.9173 49.5328 28.3019 49.449 28.5386L48.0439 32.4802L46.7385 36.1396C46.7181 36.1987 46.6932 36.267 46.666 36.3398C46.6524 36.3762 46.6388 36.4149 46.6252 36.4513C46.5595 36.6357 46.487 36.8314 46.4348 36.977C46.4348 36.9816 46.4303 36.9884 46.428 36.9952C46.428 36.9952 46.3714 37.1477 46.2966 37.3707C46.2354 37.5505 46.1606 37.7758 46.0904 38.0057C46.0722 38.0626 46.0564 38.1217 46.0383 38.1786C46.0043 38.2947 45.9725 38.4062 45.9476 38.5154C45.8932 38.7294 45.8592 38.9182 45.8592 39.0411C45.8592 39.5623 45.9975 39.8422 46.4824 39.8422C46.8836 39.8422 47.4003 39.4189 47.9238 38.8363C47.985 38.768 48.0462 38.6975 48.1051 38.6269C48.2751 38.4267 48.445 38.2105 48.6105 37.992C48.7192 37.8464 48.8258 37.7007 48.93 37.5551C48.998 37.4595 49.0637 37.3639 49.1294 37.2683C49.2201 37.1341 49.3085 37.0043 49.3923 36.8769C49.4331 36.8132 49.4762 36.7517 49.5147 36.6903C49.9521 36.0167 50.2444 35.5046 50.2444 35.5046C50.3691 35.2884 50.6501 35.1109 50.8677 35.1109C51.0036 35.1109 51.0897 35.1815 51.1033 35.2884C51.1056 35.3089 51.1056 35.3317 51.1033 35.3567C51.0988 35.4045 51.0807 35.4568 51.0512 35.5137C51.0512 35.5137 49.0433 39.3051 46.811 40.9641L46.8042 40.9619ZM50.8586 33.2904C50.3963 33.2904 49.9317 33.4405 49.5283 33.6977L50.9288 29.7721C51.2914 30.0747 51.7583 30.25 52.2614 30.25C52.7079 30.25 53.1611 30.118 53.5622 29.8859L52.2229 33.8001C51.8557 33.477 51.3776 33.2904 50.8586 33.2904ZM85.7499 28.0061C85.5777 28.0061 85.3987 28.0994 85.2763 28.2337C85.2196 28.2951 85.1743 28.3634 85.1494 28.4362L82.9692 34.7923L80.7891 41.1485C80.7596 41.2349 80.703 41.3146 80.635 41.3829C80.635 41.3829 80.6327 41.3874 80.6304 41.3874C80.6259 41.392 80.6191 41.3965 80.6123 41.4011C80.4922 41.508 80.3381 41.5763 80.1885 41.5763H75.0985C74.8492 41.5763 74.711 41.3829 74.7926 41.1462L75.8532 38.0512C75.1076 39.098 74.1739 40.2313 73.1994 40.9573C72.5762 41.4216 71.9371 41.7197 71.3229 41.7197C69.485 41.7197 68.8618 40.7457 68.8618 39.4917C68.8618 39.4417 68.864 39.387 68.8708 39.3302C68.9615 38.4676 69.6821 36.845 69.6821 36.845C69.7773 36.6311 69.9246 36.2875 70.0244 36.0554C70.0312 36.0394 70.0379 36.0235 70.0447 36.0099C70.0447 36.0099 70.1331 35.8005 70.2804 35.4432C70.3099 35.3726 70.3416 35.293 70.3756 35.2111C70.4776 34.963 70.6022 34.6626 70.7382 34.3281C70.9195 33.882 71.1258 33.37 71.3433 32.8261C71.5609 32.2822 71.7875 31.7019 72.0119 31.1193C72.0685 30.9737 72.1229 30.828 72.1796 30.6824C72.2906 30.3911 72.3994 30.1021 72.5059 29.8176C72.6124 29.5331 72.7144 29.2532 72.8096 28.9824C72.907 28.7116 72.9977 28.4499 73.0815 28.1995C73.1246 28.0744 73.1654 27.9538 73.2039 27.8354C73.3195 27.4804 73.4169 27.1595 73.4917 26.8842C73.5892 26.5178 73.6458 26.231 73.6458 26.0558C73.6458 25.2911 73.4033 24.943 72.9184 24.943C72.7892 24.943 72.592 25.0727 72.3473 25.3025C72.2249 25.4163 72.0912 25.5551 71.9461 25.7144C71.6583 26.033 71.332 26.4313 70.9852 26.8819C70.813 27.1072 70.634 27.3416 70.4527 27.5874C68.6465 30.0338 66.5751 33.2972 66.5751 33.2972C66.5638 33.3154 66.5524 33.3359 66.5388 33.3541C66.4346 33.5248 66.3077 33.7592 66.2102 33.9549C66.1853 34.0049 66.1626 34.0527 66.1423 34.096L63.2392 40.9846C63.2165 41.0438 63.1802 41.0984 63.1372 41.1485C63.008 41.3009 62.804 41.4079 62.6182 41.4079H60.1276C59.9395 41.4079 59.8216 41.3009 59.8103 41.1485C59.808 41.0984 59.8148 41.0415 59.8375 40.9846L61.0296 37.926L62.3145 34.6285C62.4052 34.3964 62.557 34.014 62.6499 33.7819C62.6499 33.7819 64.5015 29.2009 65.0816 26.9957C65.1882 26.5883 65.2516 26.2606 65.2516 26.0581C65.2516 25.2934 65.0091 24.9452 64.4901 24.9452C64.3428 24.9452 64.1139 25.1364 63.8261 25.48C61.4805 28.2655 55.126 41.0005 55.126 41.0005C55.0149 41.2236 54.718 41.4079 54.4687 41.4079H51.9781C51.7288 41.4079 51.5906 41.2145 51.6722 40.9778L53.8999 34.4692L55.9509 28.4749C55.9917 28.3566 56.0461 28.1995 56.0982 28.0448C56.1503 27.89 56.207 27.733 56.2478 27.6147C56.2478 27.6147 56.4359 27.0776 56.624 26.4814C56.6942 26.2583 56.7645 26.0239 56.8256 25.8077C56.8664 25.6644 56.9027 25.5278 56.9299 25.4049C56.973 25.2229 57.0002 25.0727 57.0002 24.9816C57.0002 24.5288 56.8279 24.39 56.5492 24.39C56.4517 24.39 56.3407 24.4218 56.2183 24.481C56.1367 24.5197 56.0529 24.5697 55.9645 24.6312C55.7877 24.7518 55.5951 24.9111 55.3979 25.0977C54.2625 26.1628 52.93 28.0562 52.93 28.0562C52.7872 28.261 52.4812 28.4271 52.2523 28.4271C52.1866 28.4271 52.1345 28.4112 52.096 28.3861C52.0189 28.3361 52.0008 28.2428 52.0552 28.1313C52.0665 28.1062 52.0824 28.0835 52.1005 28.0562C52.1005 28.0562 54.3101 24.9566 56.4834 23.4046C56.6647 23.2748 56.846 23.1565 57.0251 23.0518C57.2041 22.9471 57.3809 22.8561 57.5577 22.781C57.9067 22.6308 58.2466 22.5443 58.5616 22.5443C59.8103 22.5443 60.3995 23.4501 60.3995 24.4582C60.3995 24.5424 60.3905 24.6403 60.3769 24.7472C60.3633 24.8474 60.3429 24.9566 60.318 25.0704C60.3157 25.0841 60.3112 25.1 60.3089 25.1136C60.0732 26.165 59.4636 27.6579 59.4636 27.6579C59.416 27.774 59.3548 27.9264 59.2959 28.0812C59.237 28.2359 59.178 28.3884 59.135 28.5068L58.2693 30.8644L57.4035 33.2221C57.3718 33.3108 57.3514 33.3928 57.3424 33.461C57.3288 33.5748 57.3492 33.6499 57.4013 33.6499C57.4443 33.6499 57.5078 33.6044 57.5758 33.5316C57.6256 33.477 57.68 33.4064 57.7276 33.329C57.7435 33.304 57.7593 33.2767 57.7752 33.2494C57.7752 33.2494 58.5933 31.7337 59.7605 29.8403C59.808 29.7607 59.8579 29.681 59.9078 29.6014C60.5559 28.5591 61.3015 27.4212 62.0698 26.3653C62.4233 25.8783 62.7836 25.4095 63.1417 24.9748C63.2596 24.8292 63.3797 24.6904 63.4975 24.5538C64.5627 23.3295 65.5825 22.4761 66.3621 22.4761C67.7128 22.4761 68.4765 23.5889 68.4765 24.8428C68.4765 25.1637 68.404 25.5893 68.2839 26.0786C68.2363 26.2743 68.1796 26.4814 68.1162 26.6953C68.0232 27.0162 67.9145 27.353 67.7966 27.7011C67.7581 27.8172 67.7173 27.9333 67.6765 28.0493C67.5949 28.2837 67.5088 28.5204 67.4204 28.7571C66.5819 31.0032 65.5485 33.238 65.5485 33.238C65.5032 33.3381 65.4737 33.4269 65.4646 33.4997C65.451 33.5907 65.4646 33.6522 65.5145 33.6522C65.5984 33.6522 65.7615 33.4815 65.8839 33.2721C65.8862 33.2676 65.8907 33.2608 65.893 33.2562C65.893 33.2562 66.0244 33.0218 66.2578 32.6236C66.2873 32.5735 66.319 32.5212 66.3507 32.4665C66.4278 32.3368 66.5139 32.1912 66.6068 32.0364C66.7133 31.8566 66.8312 31.6632 66.9581 31.4538C67.1711 31.1056 67.4091 30.721 67.6674 30.3114C67.8601 30.0065 68.064 29.6901 68.2748 29.3647C68.4652 29.0734 68.6646 28.773 68.8686 28.4726C68.9479 28.3543 69.0272 28.2382 69.1088 28.1199C69.1994 27.9856 69.2924 27.8536 69.3875 27.7194C69.6323 27.3689 69.8816 27.0207 70.1354 26.6793C70.1671 26.6384 70.1966 26.5951 70.2283 26.5542C70.3348 26.4108 70.4436 26.2674 70.5501 26.1286C70.6725 25.9693 70.7971 25.81 70.9195 25.6553C71.0102 25.5438 71.0986 25.4322 71.1892 25.323C71.2844 25.2069 71.3796 25.0909 71.4748 24.9794C71.5971 24.8337 71.7218 24.6949 71.8419 24.5584C71.962 24.4218 72.0866 24.2898 72.2068 24.1647C72.3269 24.0395 72.447 23.9166 72.5648 23.8028C73.3943 22.9972 74.1648 22.4806 74.779 22.4806C76.4084 22.4806 77.2401 23.5252 77.2401 25.0226C77.2401 25.4186 77.1427 25.9648 76.975 26.602C76.9093 26.8569 76.8322 27.1254 76.7438 27.4076C75.6673 30.9168 73.2039 36.1669 73.2039 36.1669C73.0974 36.3945 72.9342 36.7677 72.8413 36.9998C72.8413 36.9998 72.3609 38.1946 72.2408 38.8204C72.2226 38.9091 72.2136 38.9865 72.2136 39.048C72.2136 39.5691 72.3858 39.849 72.8368 39.849C72.9977 39.849 73.1767 39.7807 73.3671 39.6624C73.3716 39.6624 73.3739 39.6579 73.3784 39.6556C73.4713 39.5987 73.5642 39.5281 73.6617 39.4485C73.8611 39.2824 74.0696 39.0753 74.2781 38.8431C75.4271 37.5619 76.5988 35.5115 76.5988 35.5115C76.6441 35.4318 76.7121 35.3567 76.7914 35.2953L79.9846 25.9852L84.7392 12.1192C84.7596 12.0578 84.7936 11.9986 84.8366 11.9462C84.959 11.796 85.1539 11.6891 85.3397 11.6891H96.356C96.6053 11.6891 96.7436 11.8825 96.662 12.1192L95.8643 14.445L94.9645 17.0712C94.9442 17.1304 94.9124 17.1873 94.8716 17.2373C94.7493 17.3921 94.5498 17.5013 94.364 17.5013H89.3442C89.1607 17.5013 88.9635 17.6083 88.8411 17.7585C88.7981 17.8108 88.7641 17.87 88.7437 17.9314L88.1046 19.7975L87.4043 21.8389C87.3227 22.0755 87.461 22.269 87.7103 22.269H92.4195C92.6688 22.269 92.8071 22.4624 92.7255 22.6991L91.0507 27.5805C90.9691 27.8172 90.6994 28.0107 90.4502 28.0107H85.7409L85.7499 28.0061ZM102.409 37.9556C102.303 38.1217 102.194 38.281 102.087 38.4358C101.981 38.5905 101.872 38.7385 101.763 38.8796C101.494 39.23 101.226 39.5327 100.972 39.7512C99.3475 41.1553 97.1356 41.8562 94.3413 41.8562C91.7306 41.8562 90.1057 41.1371 89.4666 39.6988C89.4077 39.5645 89.3624 39.4007 89.3284 39.2186C89.0134 37.4458 89.8745 33.7045 89.8745 33.7045C89.9312 33.461 90.0422 33.0673 90.1238 32.8307L93.3374 23.4592C93.419 23.2225 93.5776 22.847 93.6909 22.624C93.6909 22.624 93.9221 22.1666 94.2983 21.5203C94.7787 20.6942 95.4949 19.5586 96.2676 18.671C96.347 18.58 96.4263 18.4913 96.5056 18.4048C96.6144 18.2887 96.7254 18.1795 96.8365 18.0748C97.0019 17.92 97.1674 17.7835 97.3328 17.6674C99.0937 16.4385 101.176 15.8218 103.581 15.8218C104.8 15.8218 105.711 16.2428 106.396 16.8755C108.444 18.7734 108.426 22.5694 108.426 22.5694C108.426 22.8197 108.358 23.218 108.277 23.4546L107.939 24.4377C107.857 24.6744 107.724 25.0613 107.642 25.298L106.33 28.9665C106.244 29.2009 105.97 29.3943 105.72 29.3943H97.8223C97.6387 29.3943 97.4416 29.5013 97.3192 29.6515C97.2761 29.7038 97.2421 29.763 97.2217 29.8244L96.5532 31.7747L95.8212 33.9071C95.7917 33.9958 95.7555 34.1073 95.7169 34.2234C95.6807 34.3395 95.6422 34.4601 95.6082 34.5716C95.5855 34.6467 95.5651 34.715 95.5492 34.7764C95.5492 34.7764 95.4473 35.136 95.3611 35.5388C95.3521 35.5843 95.343 35.6298 95.3339 35.6753C95.3068 35.8119 95.2818 35.9484 95.266 36.0758C95.2501 36.2033 95.241 36.3194 95.2433 36.4127C95.2569 36.911 95.5651 37.1614 96.1657 37.1614C96.628 37.1614 97.0042 37.0226 97.2965 36.7449C97.5889 36.4673 97.8132 36.1487 97.9719 35.7868C98.0308 35.6526 98.1078 35.4569 98.1804 35.2634C98.2166 35.1678 98.2529 35.0723 98.2846 34.9858C98.3594 34.7832 98.4138 34.633 98.4138 34.633C98.4659 34.4851 98.5384 34.2803 98.6064 34.0869C98.6472 33.9708 98.6835 33.8616 98.7152 33.7728L99.0053 32.924L99.2659 32.1616C99.2863 32.1024 99.318 32.0455 99.3588 31.9955C99.4812 31.8407 99.6806 31.7315 99.8665 31.7315H104.99C105.24 31.7315 105.378 31.9249 105.296 32.1616L105.09 32.7624C105.009 32.9991 104.859 33.3791 104.755 33.6067C104.755 33.6067 104.206 34.8151 103.456 36.1896C103.137 36.7745 102.781 37.389 102.416 37.9556H102.409ZM108.653 29.1895C108.843 29.4421 109.151 29.8085 109.369 30.0406L109.673 30.3615H107.572C107.767 30.1407 107.923 29.8836 108.027 29.6037C108.027 29.5991 108.032 29.5923 108.034 29.5877L108.335 28.7434C108.467 28.9391 108.58 29.0939 108.653 29.1895ZM116.349 39.9446C114.57 41.2213 112.48 41.8585 110.078 41.8585C108.354 41.8585 107.236 41.0074 106.511 39.89C106.314 39.585 106.144 39.2619 106.001 38.9296C105.954 38.8181 105.908 38.7066 105.865 38.5951C105.738 38.2583 105.634 37.9192 105.548 37.5869C105.462 37.2547 105.398 36.9292 105.346 36.6266C105.342 36.5947 105.337 36.5651 105.333 36.5333C105.163 35.4637 105.174 34.6581 105.174 34.6581C105.179 34.4077 105.251 34.0095 105.335 33.7751L105.754 32.6122C105.838 32.3778 106.112 32.1843 106.362 32.1843H111.522C111.771 32.1843 111.912 32.3778 111.832 32.6167L111.479 33.6818L111.125 34.7468C111.089 34.8561 111.046 34.9949 111.005 35.1405C110.955 35.3135 110.91 35.4887 110.878 35.623C110.878 35.623 110.751 36.1669 110.837 36.4923C110.844 36.5151 110.849 36.5355 110.858 36.5538C110.98 36.8678 111.309 37.0248 111.841 37.0248C112.65 37.0248 113.28 36.3626 113.734 35.0404C114.067 34.0664 114.139 33.2995 113.949 32.7442C113.913 32.6395 113.858 32.5234 113.793 32.4051C113.509 31.8908 113.029 31.3173 113.029 31.3173C112.986 31.2672 112.936 31.2081 112.882 31.1466C112.8 31.051 112.709 30.9509 112.623 30.8553C112.551 30.7757 112.483 30.7006 112.426 30.6391L111.61 29.7743L110.686 28.7935C110.611 28.7139 110.518 28.6092 110.427 28.4999C110.307 28.3588 110.187 28.2109 110.103 28.0994C110.103 28.0994 109.521 27.3211 109.158 26.5473C109.129 26.4836 109.099 26.4176 109.072 26.3539C109.018 26.2265 108.972 26.099 108.938 25.9784C108.92 25.917 108.907 25.8578 108.898 25.8009C108.728 24.8838 108.927 23.5912 109.5 21.9208C109.947 20.6213 110.667 19.5131 111.662 18.5959C112.657 17.6788 113.802 16.9893 115.093 16.525C116.385 16.0608 117.725 15.8286 119.109 15.8286C119.572 15.8286 119.989 15.8901 120.367 15.9993C120.619 16.0721 120.854 16.1677 121.072 16.2815C121.398 16.4522 121.688 16.6661 121.947 16.9096C124.004 18.8576 123.968 22.7514 123.968 22.7514C123.968 22.8629 123.959 22.9881 123.945 23.1042C123.93 23.2475 123.907 23.3773 123.88 23.4501C123.859 23.5092 123.8 23.5616 123.721 23.6048C123.619 23.6594 123.483 23.6936 123.343 23.6936H117.976C117.727 23.6936 117.589 23.5001 117.67 23.2635L117.691 23.2043L117.709 23.1497C117.729 23.0905 117.752 23.0222 117.774 22.9471C117.845 22.7264 117.922 22.4601 117.969 22.2781C117.969 22.2781 118.101 21.7592 118.103 21.3405C118.103 21.2813 118.101 21.2221 118.094 21.1698C118.044 20.7397 117.788 20.5258 117.328 20.5258C116.911 20.5258 116.553 20.6486 116.249 20.8922C115.946 21.1357 115.78 21.4747 115.78 21.4747C115.739 21.5589 115.696 21.6659 115.658 21.7797C115.594 21.9709 115.542 22.1802 115.522 22.335L115.61 22.9881L115.699 23.6412C115.816 23.862 116.057 24.1851 116.236 24.3604L117.312 25.4163L118.389 26.4723C118.568 26.6475 118.84 26.9502 118.996 27.1459C118.996 27.1459 119.259 27.4759 119.581 27.9469C119.719 28.1495 119.866 28.3748 120.011 28.6137C120.106 28.773 120.199 28.9346 120.288 29.0984C120.46 29.4262 120.605 29.7516 120.684 30.0452C120.999 31.2172 120.85 32.6964 120.238 34.4828C119.427 36.8496 118.13 38.6725 116.354 39.9469L116.349 39.9446ZM135.667 12.1124L134.932 14.2561L134.112 16.6456C134.03 16.8823 134.169 17.0757 134.418 17.0757H135.245C135.494 17.0757 135.633 17.2692 135.551 17.5059L134.905 19.3902L134.259 21.2745C134.23 21.361 134.173 21.4406 134.105 21.5089C134.105 21.5089 134.103 21.5134 134.101 21.5134C134.096 21.518 134.089 21.5225 134.082 21.5271C133.962 21.634 133.808 21.7023 133.659 21.7023H132.831C132.648 21.7023 132.451 21.8093 132.328 21.9595C132.285 22.0118 132.251 22.071 132.231 22.1324L130.03 28.5523L127.621 35.5775C127.587 35.673 127.549 35.7959 127.508 35.9211C127.449 36.1054 127.388 36.3011 127.345 36.4445C127.345 36.4445 127.247 36.7745 127.245 36.9839C127.245 37.1932 127.392 37.2979 127.692 37.2979C127.923 37.2979 128.145 37.2865 128.362 37.2638L128.578 37.241C128.578 37.241 128.582 37.241 128.585 37.241C128.591 37.241 128.596 37.2433 128.603 37.2456C128.609 37.2456 128.614 37.2456 128.621 37.2501C128.628 37.2524 128.632 37.257 128.637 37.2615C128.641 37.2661 128.646 37.2683 128.65 37.2729C128.655 37.2774 128.657 37.2843 128.662 37.2911C128.666 37.2979 128.668 37.3025 128.673 37.3093C128.675 37.3161 128.677 37.3252 128.68 37.3343C128.68 37.3434 128.684 37.3503 128.687 37.3594C128.687 37.3685 128.687 37.3798 128.687 37.3912C128.687 37.4026 128.687 37.4117 128.687 37.4231C128.687 37.4345 128.686 37.4481 128.684 37.4595C128.684 37.4709 128.684 37.4823 128.682 37.4936C128.682 37.5073 128.677 37.5232 128.673 37.5391C128.671 37.5505 128.668 37.5619 128.666 37.5733C128.664 37.5869 128.657 37.6029 128.652 37.6165C128.648 37.6302 128.646 37.6438 128.641 37.6575L128.097 39.2414L127.504 40.9732C127.436 41.1735 127.234 41.3715 127.025 41.458C126.987 41.4739 126.948 41.4875 126.912 41.4966C126.912 41.4966 126.647 41.5513 126.221 41.6241C126.078 41.6491 125.919 41.6742 125.745 41.6992C125.051 41.8039 124.392 41.8562 123.766 41.8562C122.171 41.8562 121.19 41.5194 120.82 40.8458C120.451 40.1722 120.929 38.0535 120.929 38.0535C120.949 37.9624 120.979 37.8486 121.011 37.7326C121.029 37.6666 121.049 37.5983 121.067 37.53C121.106 37.4003 121.144 37.2774 121.176 37.1796L123.755 29.656L126.334 22.1324C126.416 21.8958 126.277 21.7023 126.028 21.7023H125.237C124.988 21.7023 124.85 21.5089 124.931 21.2722L125.577 19.3879L126.223 17.5036C126.248 17.4285 126.293 17.3602 126.35 17.301C126.472 17.1668 126.654 17.0735 126.824 17.0735H127.615C127.787 17.0735 127.968 16.9802 128.09 16.8459C128.145 16.7845 128.19 16.7162 128.215 16.6434L129.036 14.2538L129.77 12.1101C129.79 12.0509 129.822 11.994 129.863 11.944C129.985 11.7892 130.184 11.68 130.37 11.68H135.356C135.605 11.68 135.744 11.8734 135.662 12.1101L135.667 12.1124Z" fill="white"/>
<path d="M50.7362 20.8171C53.0727 20.8171 54.7679 19.1444 54.7679 16.8391C54.7679 14.5337 53.0727 12.8611 50.7362 12.8611C48.3997 12.8611 46.7045 14.5337 46.7045 16.8391C46.7045 19.1444 48.3997 20.8171 50.7362 20.8171ZM50.7362 14.6794C52.0529 14.6794 52.9549 15.5146 52.9549 16.8368C52.9549 18.159 52.0529 18.9942 50.7362 18.9942C49.4195 18.9942 48.5175 18.1249 48.5175 16.8368C48.5175 15.5487 49.4195 14.6794 50.7362 14.6794Z" fill="white"/>
<path d="M104.014 0.717773H107.026C107.805 0.717773 108.315 0.933968 108.555 1.36863C108.796 1.8033 108.775 2.44506 108.492 3.29618L106.758 8.42796C106.396 9.50894 105.931 10.3214 105.362 10.8653C104.793 11.4092 104.068 11.6823 103.189 11.6823H100.252L104.014 0.717773ZM103.499 9.74106C103.898 9.74106 104.163 9.54535 104.299 9.15392L106.239 3.49872C106.323 3.25294 106.368 3.06633 106.373 2.94344C106.377 2.82055 106.337 2.73635 106.248 2.69539C106.16 2.65215 106.01 2.63167 105.8 2.63167H105.557L103.119 9.74106H103.499Z" fill="white"/>
<path d="M106.894 11.0177C106.633 10.508 106.674 9.75016 107.019 8.74656L109.772 0.717773H111.896L109.174 8.65554C109.054 9.00372 108.995 9.27681 108.995 9.47252C108.995 9.66824 109.106 9.76609 109.326 9.76609C109.546 9.76609 109.722 9.67051 109.856 9.47935C109.99 9.28819 110.117 9.01283 110.239 8.65554L112.963 0.717773H115.087L112.333 8.74656C111.989 9.75016 111.51 10.508 110.899 11.0177C110.287 11.5275 109.532 11.7847 108.635 11.7847C107.737 11.7847 107.157 11.5298 106.896 11.0177H106.894Z" fill="white"/>
<path d="M115.542 0.717773H118.504C119.3 0.717773 119.812 0.913487 120.038 1.30491C120.265 1.69634 120.227 2.33354 119.923 3.21881L119.757 3.70354C119.399 4.75037 118.81 5.3762 117.997 5.58102C118.414 5.69936 118.64 5.977 118.679 6.40938C118.715 6.84405 118.613 7.41754 118.368 8.13212C117.969 9.29729 117.491 10.1803 116.938 10.7811C116.385 11.3819 115.655 11.68 114.749 11.68H111.787L115.542 0.717773ZM115.927 8.93773L116.397 7.57229C116.51 7.24003 116.548 6.9897 116.51 6.81902C116.471 6.64834 116.329 6.56414 116.084 6.56414H115.678L114.588 9.74106L114.799 9.75471C115.365 9.75471 115.744 9.48163 115.93 8.93773H115.927ZM116.709 4.8414C116.895 4.8414 117.047 4.77086 117.163 4.63204C117.278 4.49322 117.38 4.29295 117.469 4.03807L117.845 2.94117C117.967 2.58388 117.872 2.40409 117.559 2.40409H117.101L116.265 4.8414H116.709Z" fill="white"/>
<path d="M117.197 11.6823L122.012 0.717773H125.711L122.994 11.6823H120.922L121.378 9.90946H120.057L119.32 11.6823H117.197ZM120.82 8.15943H121.811L123.241 2.5816H123.139L120.82 8.15943Z" fill="white"/>
<path d="M123.17 11.6823L126.93 0.717773H129.04L125.28 11.6823H123.17Z" fill="white"/>
</g>
<defs>
<clipPath id="clip0_24_936">
<rect width="137" height="43" fill="white" transform="translate(0.5 0.717773)"/>
</clipPath>
</defs>
</svg>
