<svg width="132" height="122" viewBox="0 0 132 122" fill="none" xmlns="http://www.w3.org/2000/svg">
<g filter="url(#filter0_d_26_1469)">
<path d="M23.9424 41.4003C23.9981 43.599 24.4016 45.5333 25.1531 47.2033C25.9324 48.8454 26.9622 50.1256 28.2425 51.0441C29.5227 51.9347 30.9143 52.38 32.4173 52.38C34.0872 52.38 35.4232 51.893 36.4251 50.9189C37.4271 49.9447 37.9281 48.6644 37.9281 47.078C37.9281 46.0204 37.6358 45.0045 37.0513 44.0304C36.4669 43.0563 35.7154 42.1517 34.7969 41.3168C33.9063 40.454 32.6678 39.3546 31.0813 38.0186L29.8289 36.9749C27.992 35.3885 26.6143 34.1221 25.6958 33.1758C24.7774 32.2296 24.0815 31.2276 23.6084 30.17C23.1353 29.1124 22.8987 27.8738 22.8987 26.4544C22.8987 24.8958 23.2605 23.5598 23.9841 22.4466C24.7078 21.3333 25.6958 20.4844 26.9483 19.8999C28.2007 19.3154 29.5923 19.0232 31.1231 19.0232C32.459 19.0232 33.5862 19.2319 34.5047 19.6494C35.4232 20.0391 36.3277 20.554 37.2183 21.1941C37.8306 21.6672 38.262 21.9038 38.5125 21.9038C38.763 21.9038 38.93 21.7647 39.0135 21.4863C39.097 21.1802 39.1388 20.5818 39.1388 19.6912H40.1407V29.502H39.1388C39.0831 27.8042 38.7352 26.2874 38.095 24.9514C37.4549 23.6155 36.5643 22.5857 35.4232 21.8621C34.3099 21.1106 33.0296 20.7349 31.5823 20.7349C29.9402 20.7349 28.7017 21.1524 27.8667 21.9873C27.0318 22.7945 26.6143 23.7964 26.6143 24.9932C26.6143 26.2178 27.0178 27.3172 27.825 28.2913C28.6321 29.2654 29.8846 30.4483 31.5823 31.8399L32.8348 32.9254L34.1707 34.0526C36.119 35.7225 37.5662 37.0445 38.5125 38.0186C39.4588 38.9928 40.2103 40.0921 40.7669 41.3168C41.3514 42.5414 41.6436 43.9747 41.6436 45.6168C41.6436 47.3703 41.2262 48.8871 40.3912 50.1674C39.5841 51.4477 38.4986 52.4218 37.1348 53.0898C35.7989 53.7577 34.3934 54.0917 32.9183 54.0917C31.3597 54.0917 30.0794 53.8691 29.0774 53.4237C28.0755 53.0063 27.1292 52.4635 26.2385 51.7956C25.9602 51.6007 25.6958 51.4338 25.4453 51.2946C25.1948 51.1276 24.9861 51.0441 24.8191 51.0441C24.4851 51.0441 24.2485 51.225 24.1094 51.5868C23.9981 51.9208 23.9424 52.5331 23.9424 53.4237H22.9404V41.4003H23.9424Z" fill="white"/>
<path d="M52.9649 35.806C52.8814 34.5814 52.6727 33.6629 52.3387 33.0506C52.0325 32.4383 51.5316 32.1321 50.8358 32.1321C49.472 32.1321 48.4561 32.981 47.7881 34.6788C47.1202 36.3487 46.7862 38.6588 46.7862 41.609C46.7862 44.6705 47.2593 47.078 48.2056 48.8314C49.1797 50.5849 50.5018 51.4616 52.1717 51.4616C53.3128 51.4616 54.273 50.9467 55.0523 49.9169C55.8595 48.8593 56.5692 47.078 57.1815 44.5731H58.1835C57.3207 50.9189 54.7462 54.0917 50.46 54.0917C47.8995 54.0917 45.8956 53.0619 44.4483 51.0024C43.001 48.9149 42.2774 46.1317 42.2774 42.6527C42.2774 40.1756 42.6392 38.0186 43.3628 36.1817C44.1143 34.317 45.158 32.8836 46.4939 31.8817C47.8299 30.8797 49.3607 30.3787 51.0863 30.3787C52.283 30.3787 53.3685 30.6431 54.3426 31.1719C55.3446 31.6729 56.1239 32.3548 56.6805 33.2176C57.2372 34.0526 57.5155 34.9293 57.5155 35.8477C57.5155 36.5714 57.3346 37.128 56.9728 37.5177C56.6109 37.9073 56.0821 38.1021 55.3863 38.1021C53.8834 38.1021 53.0763 37.3368 52.9649 35.806Z" fill="white"/>
<path d="M69.7891 30.3787C70.7076 30.3787 71.4452 30.6153 72.0018 31.0884C72.5863 31.5616 72.8785 32.1739 72.8785 32.9254C72.8785 33.5933 72.6837 34.15 72.294 34.5953C71.9044 35.0406 71.3617 35.2633 70.6658 35.2633C70.137 35.2633 69.7196 35.1658 69.4134 34.971C69.1072 34.7762 68.8428 34.484 68.6202 34.0943C68.481 33.8438 68.3279 33.6629 68.161 33.5516C68.0218 33.4403 67.8548 33.3846 67.66 33.3846C67.0755 33.3846 66.5189 33.6768 65.99 34.2613C65.4612 34.8458 64.8211 35.7921 64.0696 37.1002V48.9567C64.0696 49.903 64.167 50.5988 64.3619 51.0441C64.5845 51.4894 65.002 51.8095 65.6143 52.0043C66.2266 52.1713 67.1729 52.2548 68.4532 52.2548V53.2568H57.1812V52.2548C58.044 52.2548 58.6841 52.1713 59.1016 52.0043C59.5191 51.8095 59.7974 51.4894 59.9366 51.0441C60.0757 50.5988 60.1453 49.903 60.1453 48.9567V36.3905C60.1453 35.3328 60.1035 34.6231 60.02 34.2613C59.9644 33.8995 59.7835 33.7186 59.4773 33.7186C59.1712 33.7186 58.6284 33.9134 57.8491 34.3031L57.3899 33.4263L60.521 31.8817L63.4851 30.3787L64.0696 30.9632V34.7205H64.1949C65.8091 31.826 67.6739 30.3787 69.7891 30.3787Z" fill="white"/>
<path d="M81.1319 54.0917C79.2394 54.0917 77.5694 53.5768 76.1222 52.547C74.7027 51.5172 73.6033 50.1117 72.824 48.3305C72.0726 46.5214 71.6968 44.4896 71.6968 42.2352C71.6968 39.9808 72.0726 37.963 72.824 36.1817C73.6033 34.3726 74.7027 32.9532 76.1222 31.9234C77.5694 30.8936 79.2394 30.3787 81.1319 30.3787C83.0245 30.3787 84.6805 30.8936 86.1 31.9234C87.5194 32.9532 88.6049 34.3726 89.3563 36.1817C90.1356 37.963 90.5253 39.9808 90.5253 42.2352C90.5253 44.4896 90.1356 46.5214 89.3563 48.3305C88.6049 50.1117 87.5194 51.5172 86.1 52.547C84.6805 53.5768 83.0245 54.0917 81.1319 54.0917ZM81.6747 52.3383C83.1498 52.3383 84.2631 51.6842 85.0145 50.3761C85.766 49.0402 86.1417 47.078 86.1417 44.4896C86.1417 43.6547 86.1 42.764 86.0165 41.8177C85.7382 38.6449 85.1398 36.2513 84.2213 34.637C83.3028 32.9949 82.0921 32.1739 80.5892 32.1739C79.1141 32.1739 77.9869 32.8279 77.2076 34.1361C76.4561 35.4442 76.0804 37.3924 76.0804 39.9808C76.0804 40.8158 76.1221 41.7203 76.2056 42.6945C76.484 45.8673 77.0824 48.2748 78.0008 49.9169C78.9471 51.5312 80.1717 52.3383 81.6747 52.3383Z" fill="white"/>
<path d="M96.8322 48.9567C96.8322 49.903 96.9018 50.5988 97.041 51.0441C97.1801 51.4894 97.4445 51.8095 97.8342 52.0043C98.2516 52.1713 98.8918 52.2548 99.7546 52.2548V53.2568H89.9437V52.2548C90.8065 52.2548 91.4467 52.1713 91.8642 52.0043C92.2816 51.8095 92.56 51.4894 92.6991 51.0441C92.8383 50.5988 92.9079 49.903 92.9079 48.9567V24.9932C92.9079 23.9634 92.8661 23.2676 92.7826 22.9058C92.727 22.544 92.5461 22.3631 92.2399 22.3631C91.9894 22.3631 91.4467 22.5579 90.6117 22.9475L90.1525 22.0708L93.2836 20.4844L96.2477 19.0232L96.8322 19.6077V48.9567Z" fill="white"/>
<path d="M105.671 48.9567C105.671 49.903 105.741 50.5988 105.88 51.0441C106.019 51.4894 106.283 51.8095 106.673 52.0043C107.091 52.1713 107.731 52.2548 108.593 52.2548V53.2568H98.7826V52.2548C99.6454 52.2548 100.286 52.1713 100.703 52.0043C101.121 51.8095 101.399 51.4894 101.538 51.0441C101.677 50.5988 101.747 49.903 101.747 48.9567V24.9932C101.747 23.9634 101.705 23.2676 101.622 22.9058C101.566 22.544 101.385 22.3631 101.079 22.3631C100.828 22.3631 100.286 22.5579 99.4506 22.9475L98.9914 22.0708L102.122 20.4844L105.087 19.0232L105.671 19.6077V48.9567Z" fill="white"/>
<path d="M47.1732 76.1721L46.9232 76.4178L64.9999 94.4945L83.0766 76.4178L82.8266 76.1721H74.8913L65.0001 86.0608L55.1089 76.1721H47.1732Z" fill="white"/>
</g>
<defs>
<filter id="filter0_d_26_1469" x="0.198681" y="0.323193" width="131.095" height="120.871" filterUnits="userSpaceOnUse" color-interpolation-filters="sRGB">
<feFlood flood-opacity="0" result="BackgroundImageFix"/>
<feColorMatrix in="SourceAlpha" type="matrix" values="0 0 0 0 0 0 0 0 0 0 0 0 0 0 0 0 0 0 127 0" result="hardAlpha"/>
<feOffset dy="4"/>
<feGaussianBlur stdDeviation="11.35"/>
<feComposite in2="hardAlpha" operator="out"/>
<feColorMatrix type="matrix" values="0 0 0 0 0.29611 0 0 0 0 0.182901 0 0 0 0 0.0568267 0 0 0 1 0"/>
<feBlend mode="normal" in2="BackgroundImageFix" result="effect1_dropShadow_26_1469"/>
<feBlend mode="normal" in="SourceGraphic" in2="effect1_dropShadow_26_1469" result="shape"/>
</filter>
</defs>
</svg>
